<?xml version="1.0" standalone="no"?>
<!DOCTYPE svg PUBLIC "-//W3C//DTD SVG 1.1//EN" "http://www.w3.org/Graphics/SVG/1.1/DTD/svg11.dtd" >
<svg>
<metadata>
Created by FontForge 20090914 at Thu Nov 15 07:44:07 2012
 By www-data
Copyright 1990-1993 Bitstream Inc.  All rights reserved.
</metadata>
<defs>
<font id="FuturaBT-ExtraBlack" horiz-adv-x="1024" >
  <font-face 
    font-family="Futura XBlk BT"
    font-weight="400"
    font-stretch="normal"
    units-per-em="2048"
    panose-1="2 11 9 3 2 2 4 2 2 4"
    ascent="1638"
    descent="-410"
    x-height="1034"
    cap-height="1464"
    bbox="-342 -485 2675 1973"
    underline-thickness="379"
    underline-position="-98"
    unicode-range="U+0020-U+F002"
  />
<missing-glyph horiz-adv-x="1973" 
d="M123 0v1973h1727v-1973h-1727zM1727 123v1727h-1481v-1727h1481z" />
    <glyph glyph-name=".notdef" horiz-adv-x="1973" 
d="M123 0v1973h1727v-1973h-1727zM1727 123v1727h-1481v-1727h1481z" />
    <glyph glyph-name="space" unicode=" " horiz-adv-x="702" 
 />
    <glyph glyph-name="exclam" unicode="!" horiz-adv-x="768" 
d="M135 553v965h496v-965h-496zM100 201c0 66 27.668 122.332 83.001 168.999s122 70 200 70c79.333 0 146.666 -23.167 201.999 -69.5s83 -102.833 83 -169.5c0 -66 -27.5 -122.5 -82.5 -169.5s-122.5 -70.5 -202.5 -70.5c-79.333 0 -146.333 23.333 -201 70
s-82 103.334 -82 170.001z" />
    <glyph glyph-name="quotedbl" unicode="&#x22;" horiz-adv-x="758" 
d="M690 1440v-563h-260v563h260zM326 1440v-563h-258v563h258z" />
    <glyph glyph-name="numbersign" unicode="#" horiz-adv-x="1575" 
d="M946 834h-239l-78 -213h239zM938 1470l-129 -366h227l129 366h289l-129 -366h256l-100 -270h-252l-76 -213h258l-100 -271h-254l-131 -366h-289l131 366h-227l-131 -366h-289l131 366h-258l100 271h254l74 213h-258l98 270h258l129 366h289z" />
    <glyph glyph-name="dollar" unicode="$" horiz-adv-x="1403" 
d="M47 168l161.999 384.996c72.667 -57.333 149.334 -102 230.001 -134c38.667 -14.667 77.667 -26 117 -34s78 -12 116 -12c46.667 0 83.5 8.16699 110.5 24.5s40.5 38.833 40.5 67.5c0 21.333 -11.833 38.833 -35.5 52.5s-78.5 28.834 -164.5 45.501l-148 31
c-114 22.667 -203.5 71.334 -268.5 146.001s-97.5 166 -97.5 274c0 120.667 42.667 222 128 304s201 132 347 150v152h237v-147c36.667 0 73.334 -2.83301 110.001 -8.5s74 -14.167 112 -25.5c72.667 -19.333 142 -47.666 208 -84.999l-157 -367
c-66.667 42 -128.334 73.333 -185.001 94c-28 10 -55.333 17.667 -82 23s-52.334 8 -77.001 8c-49.333 0 -87.666 -8.66699 -114.999 -26s-41 -40 -41 -68c0 -38 64 -69 192 -93l16 -3l138 -27c118.667 -22 210.834 -66.167 276.501 -132.5s98.5 -148.5 98.5 -246.5
c0 -145.333 -42.667 -262 -128 -350s-212 -144 -380 -168v-164h-238v164c-45.333 0 -90.833 3.83301 -136.5 11.5s-91.5 18.834 -137.5 33.501c-86.667 28 -169.334 69.667 -248.001 125z" />
    <glyph glyph-name="percent" unicode="%" horiz-adv-x="1851" 
d="M428 879c28 0 48.333 14.667 61 44c12.667 32 19 82.667 19 152c0 72.667 -6.33301 123.667 -19 153c-12 30.667 -32.333 46 -61 46c-28 0 -48.667 -15.833 -62 -47.5s-20 -82.167 -20 -151.5c0 -37.333 1.33301 -67.5 4 -90.5s7.66699 -43.167 15 -60.5
c13.333 -30 34.333 -45 63 -45zM803 1075c0 -122.667 -34.333 -220.5 -103 -293.5s-160 -109.5 -274 -109.5c-114.667 0 -206.167 36.167 -274.5 108.5s-102.5 170.5 -102.5 294.5c0 122.667 34 220.667 102 294s159.667 110 275 110c114.667 0 206.167 -36.333 274.5 -109
s102.5 -171 102.5 -295zM1444 168c27.333 0 47.5 15.5 60.5 46.5s19.5 81.833 19.5 152.5c0 71.333 -6.16699 121.833 -18.5 151.5s-32.833 44.5 -61.5 44.5c-28 0 -49 -15.333 -63 -46c-12.667 -32 -19 -82 -19 -150c0 -70.667 6.5 -121.5 19.5 -152.5
s33.833 -46.5 62.5 -46.5zM1819 367c0 -123.333 -34 -221.833 -102 -295.5s-159 -110.5 -273 -110.5c-114.667 0 -206.167 36.667 -274.5 110s-102.5 172 -102.5 296c0 122.667 34.167 220.5 102.5 293.5s159.833 109.5 274.5 109.5c114 0 205 -36.167 273 -108.5
s102 -170.5 102 -294.5zM408 -39l845 1518h211l-850 -1518h-206z" />
    <glyph glyph-name="ampersand" unicode="&#x26;" horiz-adv-x="1712" 
d="M805 397l-171.999 177.999c-30.667 -19.333 -51.667 -37.166 -63 -53.499s-17 -33.833 -17 -52.5c0 -29.333 12 -55 36 -77c24 -20 55 -30 93 -30c18 0 30.333 0.5 37 1.5s16 3.16699 28 6.5c19.333 6 38.666 15 57.999 27zM795.001 982.999
c27.333 16 48.5 34.166 63.5 54.499s22.5 41.833 22.5 64.5c0 24.667 -7.66699 44.834 -23 60.501s-34.333 23.5 -57 23.5s-42.667 -9 -60 -27c-16 -18 -24 -39.667 -24 -65c0 -21.333 6.5 -41.333 19.5 -60s32.5 -35.667 58.5 -51zM1081 122.998
c-71.333 -49.333 -147.499 -86.3291 -228.499 -110.996s-165.167 -37 -252.5 -37c-162.667 0 -294.834 41.667 -396.501 125s-152.5 190.666 -152.5 321.999c0 102 30.833 187.833 92.5 257.5s146.167 113.5 253.5 131.5c-52.667 45.333 -90.667 90.166 -114 134.499
s-35 93.166 -35 146.499c0 119.333 49.167 216.666 147.5 291.999s227.833 113 388.5 113c152 0 276.5 -38.167 373.5 -114.5s145.5 -173.166 145.5 -290.499c0 -84.667 -22.333 -155.334 -67 -212.001s-110.667 -98 -198 -124l140 -129c38 30 75 63.333 111 100
s70.667 77 104 121l288 -297c-31.333 -37.333 -67.333 -71.666 -108 -102.999c-36 -28.667 -78.333 -56.334 -127 -83.001l358 -365h-610z" />
    <glyph glyph-name="quotesingle" unicode="'" horiz-adv-x="393" 
d="M326 1440v-563h-258v563h258z" />
    <glyph glyph-name="parenleft" unicode="(" horiz-adv-x="891" 
d="M436 -451c-104 170 -180.832 336.334 -230.499 499.001s-74.5 330.334 -74.5 503.001c0 175.333 28 349 84 521s141.333 350.667 256 536l373 -205c-84.667 -140.667 -147.834 -282.167 -189.501 -424.5s-62.5 -287.5 -62.5 -435.5
c0 -122.667 19.167 -249.834 57.5 -381.501s97.5 -272.834 177.5 -423.501z" />
    <glyph glyph-name="parenright" unicode=")" horiz-adv-x="891" 
d="M455 -451l-392 188.999c79.333 149.333 138.5 290.5 177.5 423.5s58.5 260.167 58.5 381.5c0 150 -20.5 295.5 -61.5 436.5s-104.5 282.167 -190.5 423.5l373 205c114.667 -185.333 200 -364.333 256 -537s84 -346 84 -520c0 -175.333 -24.5 -343.666 -73.5 -504.999
s-126.167 -327 -231.5 -497z" />
    <glyph glyph-name="asterisk" unicode="*" horiz-adv-x="1067" 
d="M610 1214l195 156l117 -196l-236 -93l236 -90l-117 -198l-195 159l39 -254h-233l39 254l-197 -159l-113 198l238 90l-238 93l113 196l197 -156l-39 250h233z" />
    <glyph glyph-name="plus" unicode="+" horiz-adv-x="1706" 
d="M993 1221v-473h459v-273h-459v-475h-280v475h-459v273h459v473h280z" />
    <glyph glyph-name="comma" unicode="," horiz-adv-x="702" 
d="M-18 -350l237 725h500l-344 -725h-393z" />
    <glyph glyph-name="hyphen" unicode="-" horiz-adv-x="983" 
d="M150 305v418h684v-418h-684z" />
    <glyph glyph-name="period" unicode="." horiz-adv-x="702" 
d="M66 209c0 66 27.501 122.501 82.501 169.501s122.167 70.5 201.5 70.5s146.666 -23.333 201.999 -70s83 -103.334 83 -170.001c0 -66 -27.5 -122.5 -82.5 -169.5s-122.5 -70.5 -202.5 -70.5s-147.333 23.5 -202 70.5s-82 103.5 -82 169.5z" />
    <glyph glyph-name="slash" unicode="/" horiz-adv-x="958" 
d="M0 -190l717 1687h241l-716 -1687h-242z" />
    <glyph glyph-name="zero" unicode="0" horiz-adv-x="1403" 
d="M584 721c0 -105.333 9.49902 -182.5 28.499 -231.5s48.833 -73.5 89.5 -73.5c39.333 0 69 24 89 72c9.33301 24.667 16.333 55.834 21 93.501s7 84.167 7 139.5c0 106.667 -9.16699 184.167 -27.5 232.5s-48.166 72.5 -89.499 72.5c-40.667 0 -70.667 -24 -90 -72
c-9.33301 -24.667 -16.333 -55.834 -21 -93.501s-7 -84.167 -7 -139.5zM71.999 721c0 234.667 55.999 419.667 167.999 555s266 203 462 203s349.833 -67.167 461.5 -201.5s167.5 -319.833 167.5 -556.5c0 -238 -55.667 -424.167 -167 -558.5s-265.333 -201.5 -462 -201.5
c-193.333 0 -346.666 68.167 -459.999 204.5s-170 321.5 -170 555.5z" />
    <glyph glyph-name="one" unicode="1" horiz-adv-x="1403" 
d="M500 1006h-219v444h745v-1450h-526v1006z" />
    <glyph glyph-name="two" unicode="2" horiz-adv-x="1403" 
d="M33 0l652.998 778c32 38 54 69 66 93s18 47.667 18 71c0 27.333 -8.16699 49.5 -24.5 66.5s-38.166 25.5 -65.499 25.5c-33.333 0 -57.666 -13.667 -72.999 -41s-23 -70.333 -23 -129h-488v17c0 187.333 52.667 333.833 158 439.5s251.333 158.5 438 158.5
c178 0 321.167 -49.167 429.5 -147.5s162.5 -226.833 162.5 -385.5c0 -83.333 -19 -159 -57 -227s-101.667 -139 -191 -213l-123 -103h369v-403h-1249z" />
    <glyph glyph-name="three" unicode="3" horiz-adv-x="1403" 
d="M633 907h22.001c44 0 77.667 8.5 101 25.5s35 42.167 35 75.5c0 25.333 -7.66699 46 -23 62s-35 24 -59 24c-24.667 0 -43.834 -8.83301 -57.501 -26.5s-20.5 -43.167 -20.5 -76.5h-483c0 158.667 49.333 279.667 148 363s240.334 125 425.001 125
c164 0 296.5 -37.833 397.5 -113.5s151.5 -174.5 151.5 -296.5c0 -74 -17 -135.167 -51 -183.5s-86.667 -85.5 -158 -111.5c85.333 -18.667 150.666 -57.5 195.999 -116.5s68 -134.167 68 -225.5c0 -143.333 -54.667 -257.666 -164 -342.999s-256.666 -128 -441.999 -128
c-197.333 0 -352.5 49 -465.5 147s-169.5 233.333 -169.5 406v4h503c0 -24 2.66699 -45.167 8 -63.5s12.666 -33.833 21.999 -46.5s20.833 -22.334 34.5 -29.001s29.167 -10 46.5 -10c34 0 61.667 11 83 33s32 50.333 32 85c0 40 -12.333 71 -37 93
c-12 10.667 -26.5 18.667 -43.5 24s-37.833 8 -62.5 8l-23 -1h-14v296z" />
    <glyph glyph-name="four" unicode="4" horiz-adv-x="1403" 
d="M694 0v291h-626v383l550 790h578v-790h158v-383h-158v-291h-502zM524 674h209v198c0 13.333 0.333008 30.666 1 51.999s1 36 1 44c0 13.333 0.5 23.333 1.5 30s3.16699 19.334 6.5 38.001c-10 -26.667 -21.833 -52.5 -35.5 -77.5s-35.167 -59.833 -64.5 -104.5z" />
    <glyph glyph-name="five" unicode="5" horiz-adv-x="1403" 
d="M152 578l139 872h907v-391h-577l-15 -88l98 9l97 3c160 0 285.667 -42.667 377 -128s137 -202.333 137 -351c0 -172 -59.333 -305.833 -178 -401.5s-284.667 -143.5 -498 -143.5c-102 0 -200 11 -294 33s-184.333 55.333 -271 100l65 408
c106 -44.667 197.5 -77 274.5 -97s145.167 -30 204.5 -30c70 0 121.333 9 154 27s49 46.333 49 85c0 44.667 -24.333 79.5 -73 104.5s-117 37.5 -205 37.5c-46 0 -100 -3.83301 -162 -11.5s-138.333 -20.167 -229 -37.5z" />
    <glyph glyph-name="six" unicode="6" horiz-adv-x="1403" 
d="M709 408c35.333 0 64.501 13.167 87.501 39.5s34.5 60.166 34.5 101.499c0 42.667 -11.167 76.834 -33.5 102.501s-51.833 38.5 -88.5 38.5s-66.334 -12.833 -89.001 -38.5s-34 -59.834 -34 -102.501c0 -41.333 11 -75.166 33 -101.499s52 -39.5 90 -39.5zM830.001 1032
l19 0.998047l32 1c145.333 0 258.666 -40.167 339.999 -120.5s122 -192.166 122 -335.499c0 -180.667 -59.167 -328.667 -177.5 -444s-269.833 -173 -454.5 -173c-185.333 0 -337.166 55.5 -455.499 166.5s-177.5 252.833 -177.5 425.5c0 50.667 5.66699 100.334 17 149.001
s29.333 98.667 54 150c48 100 142.333 234.333 283 403l172 205h686z" />
    <glyph glyph-name="seven" unicode="7" horiz-adv-x="1403" 
d="M125 0l520 1001h-508v449h1313l-733 -1450h-592z" />
    <glyph glyph-name="eight" unicode="8" horiz-adv-x="1403" 
d="M702 324c31.333 0 58 12.333 80 37c20.667 26 31 59.333 31 100c0 39.333 -10 72 -30 98c-20.667 24.667 -47.667 37 -81 37s-60.333 -12.333 -81 -37c-10 -12 -17.667 -26 -23 -42s-8 -34.667 -8 -56c0 -40.667 10.5 -73.667 31.5 -99s47.833 -38 80.5 -38zM700 899
c24 0 43.999 9.5 59.999 28.5s24 43.5 24 73.5c0 32 -7.66699 57.167 -23 75.5s-35.666 27.5 -60.999 27.5c-24 0 -44 -9.33301 -60 -28c-14.667 -18.667 -22 -43.667 -22 -75c0 -30 7.66699 -54.5 23 -73.5s35 -28.5 59 -28.5zM368.999 762
c-77.333 22.667 -136.667 60.167 -178 112.5s-62 115.166 -62 188.499c0 120 53.333 219.333 160 298s244.334 118 413.001 118c168 0 305.333 -39.333 412 -118s160 -178 160 -298c0 -74.667 -20 -137.5 -60 -188.5s-99.333 -88.5 -178 -112.5
c92.667 -29.333 163.667 -73.833 213 -133.5s74 -130.5 74 -212.5c0 -135.333 -56.333 -244.666 -169 -327.999s-263.334 -125 -452.001 -125s-339.5 41.5 -452.5 124.5s-169.5 192.5 -169.5 328.5c0 82 24.667 152.667 74 212s121 104 215 134z" />
    <glyph glyph-name="nine" unicode="9" horiz-adv-x="1403" 
d="M707 1036c-35.333 0 -64.666 -13.1689 -87.999 -39.502s-35 -60.166 -35 -101.499c0 -40.667 11.167 -74 33.5 -100s52.166 -39 89.499 -39c36 0 65.333 12.833 88 38.5s34 59.167 34 100.5c0 42.667 -11.167 76.834 -33.5 102.501s-51.833 38.5 -88.5 38.5zM585 414.998
l-20.001 -1h-33c-142.667 0 -255.667 41.167 -339 123.5s-125 193.833 -125 334.5c0 62.667 8.16699 122.167 24.5 178.5s41.5 109.5 75.5 159.5c57.333 86 132 152.333 224 199s196.333 70 313 70c184 0 335.333 -54.833 454 -164.5s178 -250.167 178 -421.5
c0 -99.333 -23.667 -198.5 -71 -297.5s-141.666 -232.5 -282.999 -400.5l-172 -205h-686z" />
    <glyph glyph-name="colon" unicode=":" horiz-adv-x="768" 
d="M100 795c0 64.667 27.334 120.331 82.001 166.998s121.667 70 201 70s146.666 -23.167 201.999 -69.5s83 -102.166 83 -167.499c0 -66 -27.5 -122.5 -82.5 -169.5s-122.5 -70.5 -202.5 -70.5c-79.333 0 -146.333 23.333 -201 70s-82 103.334 -82 170.001z
M100.001 208.997c0 66 27.501 122.5 82.501 169.5s121.833 70.5 200.5 70.5c79.333 0 146.666 -23.333 201.999 -70s83 -103.334 83 -170.001c0 -66 -27.5 -122.5 -82.5 -169.5s-122.5 -70.5 -202.5 -70.5c-79.333 0 -146.333 23.333 -201 70s-82 103.334 -82 170.001z" />
    <glyph glyph-name="semicolon" unicode=";" horiz-adv-x="768" 
d="M199 795c0 66 27.332 122.334 81.999 169.001s121.334 70 200.001 70c79.333 0 146.666 -23.333 201.999 -70s83 -103 83 -169s-27.5 -122.5 -82.5 -169.5s-122.5 -70.5 -202.5 -70.5c-79.333 0 -146.166 23.167 -200.499 69.5s-81.5 103.166 -81.5 170.499z
M-0.000976562 -349.999l238 725h499l-344 -725h-393z" />
    <glyph glyph-name="less" unicode="&#x3c;" horiz-adv-x="1706" 
d="M1442 938l-801 -328l801 -327v-299l-1178 487v281l1178 487v-301z" />
    <glyph glyph-name="equal" unicode="=" horiz-adv-x="1706" 
d="M1452 512v-272h-1198v272h1198zM1452 983v-272h-1198v272h1198z" />
    <glyph glyph-name="greater" unicode="&#x3e;" horiz-adv-x="1706" 
d="M1442 752v-281l-1178 -487v299l801 327l-801 328v301z" />
    <glyph glyph-name="question" unicode="?" horiz-adv-x="1247" 
d="M311 195c0 64 27.499 118.498 82.499 163.498s122.5 67.5 202.5 67.5c79.333 0 146.666 -22.667 201.999 -68s83 -99.666 83 -162.999c0 -64 -27.667 -119 -83 -165s-122.666 -69 -201.999 -69s-146.666 22.833 -201.999 68.5s-83 100.834 -83 165.501zM435.999 514.998
l0.00195312 377.001l59 -13l52 -5c48.667 0 87.167 13 115.5 39s42.5 60.333 42.5 103c0 32 -7.83301 57 -23.5 75s-37.5 27 -65.5 27c-29.333 0 -51 -9.33301 -65 -28s-23 -49.334 -27 -92.001l-504 -1c0 78 15.667 149.667 47 215c29.333 60.667 72.333 115.667 129 165
c106 94 245.333 141 418 141c173.333 0 314 -49.667 422 -149s162 -228 162 -386c0 -143.333 -53.167 -259.666 -159.5 -348.999s-245.5 -134 -417.5 -134l-88 3c-16.667 0 -34.834 1.66699 -54.501 5s-33.834 5.66602 -42.501 6.99902z" />
    <glyph glyph-name="at" unicode="@" horiz-adv-x="2048" 
d="M1241 911l49.002 81.999h242l-156 -627l-3 -19l-1 -11c0 -15.333 4 -27.333 12 -36s19.667 -13 35 -13c85.333 0 162.333 47.333 231 142s103 205 103 331c0 157.333 -58.333 284.333 -175 381s-270.667 145 -462 145c-93.333 0 -181.5 -11.667 -264.5 -35
s-158.5 -58.666 -226.5 -105.999c-102 -72 -181.167 -161.667 -237.5 -269s-84.5 -224 -84.5 -350c0 -196 66.5 -352.167 199.5 -468.5s311.5 -174.5 535.5 -174.5c55.333 0 107.5 3.66699 156.5 11s99.167 19.333 150.5 36c100 31.333 193 78 279 140l115 -160
c-108 -80.667 -221.833 -140.834 -341.5 -180.501s-246.834 -59.5 -381.501 -59.5c-126 0 -244.333 18.167 -355 54.5s-208.667 88.5 -294 156.5c-98.667 78.667 -172.834 171.5 -222.501 278.5s-74.5 227.167 -74.5 360.5c0 117.333 18.5 228.333 55.5 333
s91.5 199.334 163.5 284.001c98.667 118 219.167 208.5 361.5 271.5s296.166 94.5 461.499 94.5c257.333 0 466 -68.667 626 -206s240 -315 240 -533c0 -115.333 -22.5 -220.333 -67.5 -315s-110.5 -175.334 -196.5 -242.001c-46 -36 -97.167 -63.833 -153.5 -83.5
s-114.5 -29.5 -174.5 -29.5c-72.667 0 -128.167 12.667 -166.5 38s-60.5 63.666 -66.5 114.999c-39.333 -52 -81.833 -90.167 -127.5 -114.5s-99.5 -36.5 -161.5 -36.5c-114 0 -199.833 29.333 -257.5 88s-86.5 146 -86.5 262c0 164.667 47.833 301.834 143.5 411.501
s214.5 164.5 356.5 164.5c49.333 0 92.833 -9.16699 130.5 -27.5s67.834 -46.166 90.501 -83.499zM1126 493.999l47.001 195c-4 43.333 -17.833 77.833 -41.5 103.5s-54.167 38.5 -91.5 38.5c-62 0 -117.333 -38.833 -166 -116.5s-73 -169.167 -73 -274.5
c0 -47.333 10 -84.333 30 -111s49 -40 87 -40c48.667 0 91.667 18.333 129 55s63.666 86.667 78.999 150z" />
    <glyph glyph-name="A" unicode="A" horiz-adv-x="1507" 
d="M641 532l219 -0.000976562l-45 166c-22.667 85.333 -37.667 150 -45 194c-3.33301 20 -6.66602 42.167 -9.99902 66.5s-5 44.833 -5 61.5h-9c0 -19.333 -1 -36.666 -3 -51.999s-6.33301 -42.5 -13 -81.5s-21.334 -101.833 -44.001 -188.5zM-57 -0.000976562l522 1464h586
l512 -1464h-566l-47 184h-397l-45 -184h-565z" />
    <glyph glyph-name="B" unicode="B" horiz-adv-x="1434" 
d="M631 596v-233.999h88c51.333 0 91.5 10.167 120.5 30.5s43.5 49.166 43.5 86.499c0 38 -14.167 67 -42.5 87s-68.833 30 -121.5 30h-88zM631 1116v-205.001h69c42.667 0 75.167 9 97.5 27s33.5 43.333 33.5 76s-11.333 57.834 -34 75.501s-55 26.5 -97 26.5h-69zM137 0
l-0.000976562 1464h701c150.667 0 267.834 -35.167 351.501 -105.5s125.5 -168.166 125.5 -293.499c0 -79.333 -19.667 -145.333 -59 -198s-95.666 -87.667 -168.999 -105c99.333 -20 173.333 -59 222 -117s73 -135 73 -231c0 -136 -46.333 -239 -139 -309
s-228.334 -105 -407.001 -105h-699z" />
    <glyph glyph-name="C" unicode="C" horiz-adv-x="1309" 
d="M1214 883c-47.333 45.333 -96.5039 79.4971 -147.504 102.497s-103.5 34.5 -157.5 34.5c-86 0 -155.167 -26.333 -207.5 -79s-78.5 -123.334 -78.5 -212.001c0 -85.333 25 -153.833 75 -205.5s117 -77.5 201 -77.5c26.667 0 52 2.33301 76 7s50 13 78 25
c53.333 22.667 110.666 57.334 171.999 104.001l-17 -551c-55.333 -22.667 -112.166 -40 -170.499 -52s-116.166 -18 -173.499 -18c-70 0 -138.5 8 -205.5 24s-126.833 38.667 -179.5 68c-129.333 74 -227.166 168.167 -293.499 282.5s-99.5 245.5 -99.5 393.5
c0 56.667 4.33301 109.334 13 158.001s23 97.334 43 146.001c38 92.667 92.833 174.834 164.5 246.501s155.834 126.167 252.501 163.5s200.334 56 311.001 56c60 0 118.833 -6.16699 176.5 -18.5s113.5 -30.833 167.5 -55.5v-542z" />
    <glyph glyph-name="D" unicode="D" horiz-adv-x="1620" 
d="M659 447c117.333 0 203.667 23.167 259 69.5s83 117.833 83 214.5c0 95.333 -26.333 166.333 -79 213s-132.667 70 -240 70h-23v-567zM137.001 0v1464h426c138.667 0 255 -7.33301 349 -22s171 -38 231 -70c126 -66 223 -154.167 291 -264.5s102 -235.833 102 -376.5
s-33.5 -265.334 -100.5 -374.001s-164.5 -197 -292.5 -265c-61.333 -32 -140.833 -55.333 -238.5 -70s-224.5 -22 -380.5 -22h-387z" />
    <glyph glyph-name="E" unicode="E" horiz-adv-x="1204" 
d="M137 0v1464h979v-397h-463v-141h420v-375h-420v-154h475v-397h-991z" />
    <glyph glyph-name="F" unicode="F" horiz-adv-x="1159" 
d="M137 0v1464h979v-397h-452v-170h409v-375h-409v-522h-527z" />
    <glyph glyph-name="G" unicode="G" horiz-adv-x="1708" 
d="M1069 524l-229.001 -0.00292969v344h809l3 -67l1 -39c0 -83.333 -8 -159.833 -24 -229.5s-39.333 -131.167 -70 -184.5c-74 -125.333 -170.167 -221.166 -288.5 -287.499s-252.5 -99.5 -402.5 -99.5c-110.667 0 -213.667 18.5 -309 55.5s-179.166 91.5 -251.499 163.5
s-127.5 154.333 -165.5 247c-18.667 46 -32.667 93.833 -42 143.5s-14 102.5 -14 158.5c0 110.667 18.833 212.167 56.5 304.5s92.334 173.833 164.001 244.5s155.667 124.834 252 162.501s199.5 56.5 309.5 56.5c149.333 0 282.166 -32.667 398.499 -98
s212.166 -161.666 287.499 -288.999l-469 -174c-24 40 -53.333 70.167 -88 90.5s-74.667 30.5 -120 30.5c-78 0 -140.167 -29.667 -186.5 -89s-69.5 -139 -69.5 -239c0 -103.333 23.333 -183.5 70 -240.5s112.667 -85.5 198 -85.5c50.667 0 91.834 10.667 123.501 32
s50.5 51 56.5 89z" />
    <glyph glyph-name="H" unicode="H" horiz-adv-x="1651" 
d="M137 0v1464h527v-487h321v487h526v-1464h-526v516h-321v-516h-527z" />
    <glyph glyph-name="I" unicode="I" horiz-adv-x="829" 
d="M147 0v1464h535v-1464h-535z" />
    <glyph glyph-name="J" unicode="J" horiz-adv-x="1042" 
d="M401 655l0.000976562 809.002h527v-952c0 -40.667 -1.33301 -77.334 -4 -110.001s-7 -61 -13 -85c-10 -47.333 -27.667 -91 -53 -131c-44 -70.667 -103.833 -125.834 -179.5 -165.501s-159.834 -59.5 -252.501 -59.5c-86.667 0 -166.167 13 -238.5 39
s-141.5 66.333 -207.5 121l172 393c30.667 -32.667 58 -56.667 82 -72c25.333 -14.667 48.333 -22 69 -22c37.333 0 63 14.167 77 42.5s21 92.5 21 192.5z" />
    <glyph glyph-name="K" unicode="K" horiz-adv-x="1565" 
d="M137 0v1464h516v-624l334 624h596l-442 -721l504 -743h-637l-355 612v-612h-516z" />
    <glyph glyph-name="L" unicode="L" horiz-adv-x="1200" 
d="M137 0v1464h527v-989h512v-475h-1039z" />
    <glyph glyph-name="M" unicode="M" horiz-adv-x="1999" 
d="M1475 0l-63.999 580.001l-12 133l-10 134c-6.66699 -46.667 -15.334 -93 -26.001 -139s-24 -94.333 -40 -145l-168 -563h-313l-168 563c-6.66699 22 -14 47.667 -22 77l-19 73l-25 134c0 -15.333 -0.5 -29 -1.5 -41s-4.16699 -43 -9.5 -93
c0 -15.333 -0.5 -28.833 -1.5 -40.5s-4.16699 -42.5 -9.5 -92.5l-64 -580h-516l250 1464h543l104 -362l15 -51c44 -152.667 71 -278.334 81 -377.001h9c8 62 20.167 128.333 36.5 199s37.5 149 63.5 235l109 356h542l232 -1464h-516z" />
    <glyph glyph-name="N" unicode="N" horiz-adv-x="1731" 
d="M137 0v1464h516l455 -766c-5.33301 30 -8.33301 47.667 -9 53c-2.66699 20 -4 40 -4 60c0 32 -0.333008 61 -1 87l-2 75v491h507v-1464h-520l-450 760c4 -26 7 -47.167 9 -63.5s3 -30.5 3 -42.5l4 -126v-528h-508z" />
    <glyph glyph-name="O" unicode="O" horiz-adv-x="1735" 
d="M868 453c73.333 0 132.668 25.167 178.001 75.5s68 117.166 68 200.499c0 84.667 -22.333 152.334 -67 203.001s-104.334 76 -179.001 76c-74 0 -133.667 -25.667 -179 -77s-68 -118.666 -68 -201.999c0 -42.667 5.5 -80.334 16.5 -113.001s28.167 -62 51.5 -88
c45.333 -50 105 -75 179 -75zM1651 729c0 -106.667 -19 -206.501 -57 -299.501s-93.333 -175 -166 -246s-157.167 -125.833 -253.5 -164.5s-198.5 -58 -306.5 -58c-108.667 0 -210.667 19 -306 57s-180.333 93.333 -255 166c-72 70 -126.833 151.333 -164.5 244
s-56.5 193 -56.5 301c0 108.667 18.5 208.834 55.5 300.501s91.833 173.5 164.5 245.5s157 127 253 165s199 57 309 57c109.333 0 211.833 -18.833 307.5 -56.5s180.5 -92.5 254.5 -164.5c70.667 -70 125.167 -151.5 163.5 -244.5s57.5 -193.833 57.5 -302.5z" />
    <glyph glyph-name="P" unicode="P" horiz-adv-x="1450" 
d="M137 0v1464h629c221.333 0 383.166 -42.667 485.499 -128s153.5 -220.666 153.5 -405.999c0 -171.333 -46.167 -297.166 -138.5 -377.499s-238.166 -120.5 -437.499 -120.5h-165v-432h-527zM666 1057v-244.001h82c50 0 88.333 10.5 115 31.5s40 50.833 40 89.5
s-13.667 68.834 -41 90.501s-65.333 32.5 -114 32.5h-82z" />
    <glyph glyph-name="Q" unicode="Q" horiz-adv-x="1735" 
d="M1333 -123l-106.001 167.998c-60.667 -26.667 -120.334 -46.667 -179.001 -60c-30 -6.66699 -59.5 -11.667 -88.5 -15s-59.5 -5 -91.5 -5c-110.667 0 -213.667 18.5 -309 55.5s-179.333 91.167 -252 162.5s-127.667 153.333 -165 246
c-18.667 46 -32.667 93.833 -42 143.5s-14 102.5 -14 158.5c0 56.667 4.33301 109.334 13 158.001s23 97.334 43 146.001c37.333 92 92.333 173.667 165 245s156.834 125.333 252.501 162s198.5 55 308.5 55c112 0 215.5 -18.667 310.5 -56s178.333 -91.333 250 -162
s126.667 -152.5 165 -245.5s57.5 -193.833 57.5 -302.5c0 -81.333 -10.167 -156.833 -30.5 -226.5s-51.166 -135.5 -92.499 -197.5l221 -246zM775.999 593.998l331 64.999l5 36l2 36c0 84 -22.667 151.667 -68 203c-22.667 25.333 -48.5 44.333 -77.5 57s-62.5 19 -100.5 19
c-74 0 -133.667 -25.667 -179 -77s-68 -118.666 -68 -201.999c0 -82.667 22.167 -148.667 66.5 -198s104.5 -74 180.5 -74h27z" />
    <glyph glyph-name="R" unicode="R" horiz-adv-x="1466" 
d="M653 1087l0.000976562 -286h82c49.333 0 87.666 12 114.999 36s41 59 41 105s-13.5 81.667 -40.5 107s-65.5 38 -115.5 38h-82zM137.001 0v1464h662c192 0 338.667 -42.167 440 -126.5s152 -206.5 152 -366.5c0 -104 -25.333 -189.5 -76 -256.5
s-119.667 -106.5 -207 -118.5l391 -596h-590l-256 483v-483h-516z" />
    <glyph glyph-name="S" unicode="S" horiz-adv-x="1251" 
d="M4 125l167.999 409.999c72.667 -50 139.667 -88.667 201 -116c59.333 -24 114.666 -36 165.999 -36c20 0 36.333 1.33301 49 4s24.667 8 36 16c20.667 14.667 31 33.334 31 56.001c0 40 -51.667 71 -155 93l-78 17c-108.667 26 -192.167 73.167 -250.5 141.5
s-87.5 153.166 -87.5 254.499c0 157.333 56.333 285.333 169 384s260.334 148 443.001 148c83.333 0 166 -11 248 -33c41.333 -11.333 81.833 -25 121.5 -41s81.167 -35.667 124.5 -59l-160 -383c-49.333 36 -99.666 64.167 -150.999 84.5s-101.333 30.5 -150 30.5
c-36 0 -64.167 -6.16699 -84.5 -18.5s-30.5 -29.5 -30.5 -51.5c0 -40.667 73 -77 219 -109l54 -12c100 -22 179.167 -68.167 237.5 -138.5s87.5 -155.166 87.5 -254.499c0 -162 -58.5 -294.333 -175.5 -397s-269.167 -154 -456.5 -154c-98 0 -194.5 13.667 -289.5 41
s-190.5 68.333 -286.5 123z" />
    <glyph glyph-name="T" unicode="T" horiz-adv-x="1178" 
d="M326 0v985h-293v479h1112v-479h-293v-985h-526z" />
    <glyph glyph-name="U" unicode="U" horiz-adv-x="1602" 
d="M121 670v794.001h526v-798c0 -92 11.167 -155.667 33.5 -191s59.833 -53 112.5 -53c51.333 0 89 18 113 54c22.667 37.333 34 100.666 34 189.999v798h526v-794c0 -103.333 -6.83301 -189 -20.5 -257s-35.5 -124.333 -65.5 -169
c-58 -90.667 -138.167 -160.5 -240.5 -209.5s-217.833 -73.5 -346.5 -73.5c-130.667 0 -246.5 24.167 -347.5 72.5s-181.167 118.5 -240.5 210.5c-28.667 43.333 -50 99 -64 167c-6.66699 33.333 -11.667 70.833 -15 112.5s-5 90.5 -5 146.5z" />
    <glyph glyph-name="V" unicode="V" horiz-adv-x="1462" 
d="M487 0l-559 1464h570l155 -530l29 -106c5.33301 -20 12.833 -52.5 22.5 -97.5s16.5 -92.5 20.5 -142.5h10c3.33301 26 7 50.667 11 74s9.66699 50.666 17 81.999c12 52.667 28 112 48 178l164 542h559l-557 -1464h-490z" />
    <glyph glyph-name="W" unicode="W" horiz-adv-x="2001" 
d="M991 741c0 -21.333 -2.83105 -48.832 -8.49805 -82.499s-13.834 -75.167 -24.501 -124.5l-8 -35l-110 -499h-459l-428 1464h528l115 -645c4 -22.667 8.33301 -49.667 13 -81c2.66699 -18.667 6 -44.334 10 -77.001s6.66699 -57.167 8 -73.5s2 -35.166 2 -56.499h12
c0 27.333 2.66699 60.166 8 98.499s13 81.833 23 130.5l4 21l139 683h371l139 -684l4 -20c10.667 -54 18.5 -98.167 23.5 -132.5s7.5 -66.5 7.5 -96.5h12c0 36 3.33301 80 10 132c2.66699 27.333 5.66699 52.333 9 75s8 49.667 14 81l115 645h528l-428 -1464h-459l-110 499
l-8 36c-10.667 48 -18.834 88.5 -24.501 121.5s-8.5 61.167 -8.5 84.5h-19z" />
    <glyph glyph-name="X" unicode="X" horiz-adv-x="1466" 
d="M780 332l-31.9971 72.001l-15 50c-2 -15.333 -6.66699 -31 -14 -47c-4.66699 -12.667 -10.334 -26 -17.001 -40c-2.66699 -6 -8.66699 -17.667 -18 -35l-166 -332h-602l520 780l-459 684h601l108 -239l6 -13c8.66699 -18.667 17 -39 25 -61
c6 -16.667 11.333 -32.334 16 -47.001c1.33301 6.66699 3.66602 15.167 6.99902 25.5s6.66602 19.5 9.99902 27.5l28 68l111 239h598l-457 -684l520 -780h-602z" />
    <glyph glyph-name="Y" unicode="Y" horiz-adv-x="1305" 
d="M375 0v647l-490 817h600l123 -284c10.667 -23.333 24 -60 40 -110l3 -11c4 14 8.83301 28.5 14.5 43.5l23.5 59.5l7 17l121 285h596l-508 -817v-647h-530z" />
    <glyph glyph-name="Z" unicode="Z" horiz-adv-x="1380" 
d="M-53 0l655 1028h-512v436h1350l-637 -1013h565v-451h-1421z" />
    <glyph glyph-name="bracketleft" unicode="[" horiz-adv-x="891" 
d="M180 -420v1970h664v-342h-256v-1286h256v-342h-664z" />
    <glyph glyph-name="backslash" unicode="\" horiz-adv-x="958" 
d="M717 -190l-717 1687h242l716 -1687h-241z" />
    <glyph glyph-name="bracketright" unicode="]" horiz-adv-x="891" 
d="M711 -420h-662v342h254v1286h-254v342h662v-1970z" />
    <glyph glyph-name="asciicircum" unicode="^" horiz-adv-x="2048" 
d="M1192 1462l442 -565h-303l-307 309l-309 -309h-303l442 565h338z" />
    <glyph glyph-name="underscore" unicode="_" 
d="M1024 -201v-282h-1024v282h1024z" />
    <glyph glyph-name="grave" unicode="`" 
d="M215 1522h297l180 -351h-166z" />
    <glyph glyph-name="a" unicode="a" horiz-adv-x="1389" 
d="M549 520c0 -44 11.999 -79.501 35.999 -106.501s55 -40.5 93 -40.5c38.667 0 69.834 13.333 93.501 40s35.5 62.334 35.5 107.001s-11.833 80.834 -35.5 108.501s-54.834 41.5 -93.501 41.5c-37.333 0 -68.166 -13.833 -92.499 -41.5s-36.5 -63.834 -36.5 -108.501z
M822.999 -0.000976562l-0.000976562 156c-50 -66 -102.333 -115 -157 -147s-115 -48 -181 -48c-119.333 0 -218.666 51.167 -297.999 153.5s-119 233.5 -119 393.5c0 168.667 38.5 304 115.5 406s177.5 153 301.5 153c64 0 122 -13.667 174 -41s100.667 -70.333 146 -129
v137h481v-1034h-463z" />
    <glyph glyph-name="b" unicode="b" horiz-adv-x="1389" 
d="M840 514c0 44.667 -11.832 80.832 -35.499 108.499s-54.834 41.5 -93.501 41.5c-38 0 -69 -13.667 -93 -41s-36 -63.666 -36 -108.999c0 -46 12 -83.167 36 -111.5s55 -42.5 93 -42.5s69 14.167 93 42.5s36 65.5 36 111.5zM104.001 1550l491.999 -0.000976562v-481
l-3 -107c0 -12 -0.5 -23.667 -1.5 -35s-2.83301 -24.666 -5.5 -39.999c40.667 58.667 87.334 103 140.001 133s111.667 45 177 45c121.333 0 221.333 -50.833 300 -152.5s118 -232.5 118 -392.5c0 -168 -38.167 -303.167 -114.5 -405.5s-177.5 -153.5 -303.5 -153.5
c-69.333 0 -131.333 15.833 -186 47.5s-104 79.5 -148 143.5v-152h-465v1550z" />
    <glyph glyph-name="c" unicode="c" horiz-adv-x="950" 
d="M891 592c-25.333 22.667 -52.332 40 -80.999 52s-58.334 18 -89.001 18c-50.667 0 -91 -13.333 -121 -40s-45 -62.667 -45 -108c0 -42.667 14.833 -77.5 44.5 -104.5s67.5 -40.5 113.5 -40.5c29.333 0 59 6.5 89 19.5s59.667 32.167 89 57.5v-411
c-49.333 -24 -98.833 -42.333 -148.5 -55s-97.834 -19 -144.501 -19c-76 0 -147 12.833 -213 38.5s-124 63.5 -174 113.5c-52 52 -92.333 112.167 -121 180.5s-43 140.5 -43 216.5c0 54.667 7 106.667 21 156s34.333 95.666 61 138.999c51.333 82.667 117.333 147 198 193
s171 69 271 69c23.333 0 45.833 -1 67.5 -3s45.167 -5.66699 70.5 -11c48.667 -9.33301 100.334 -23.666 155.001 -42.999v-418z" />
    <glyph glyph-name="d" unicode="d" horiz-adv-x="1389" 
d="M678 664c-38 0 -68.998 -13.6689 -92.998 -41.002s-36 -63.666 -36 -108.999c0 -44.667 12.167 -81.5 36.5 -110.5s55.166 -43.5 92.499 -43.5c38 0 69 14.167 93 42.5s36 65.5 36 111.5c0 44.667 -11.833 80.834 -35.5 108.501s-54.834 41.5 -93.501 41.5zM1286 1550
l-0.000976562 -1550h-467v152c-43.333 -64 -92.666 -111.833 -147.999 -143.5s-117.333 -47.5 -186 -47.5c-123.333 0 -223.666 51.167 -300.999 153.5s-116 237.5 -116 405.5c0 160.667 39.167 291.667 117.5 393s178.166 152 299.499 152
c64.667 0 123.5 -14.833 176.5 -44.5s100.167 -74.167 141.5 -133.5l-8 74l-2 108v481h493z" />
    <glyph glyph-name="e" unicode="e" horiz-adv-x="1321" 
d="M1272 435l-713 -0.999023v-16c0 -52 9.33301 -91.333 28 -118c19.333 -25.333 48.333 -38 87 -38c23.333 0 43.333 6.66699 60 20s30.667 33.333 42 60l465 -31c-40 -111.333 -110 -197.5 -210 -258.5s-221.667 -91.5 -365 -91.5c-80.667 0 -155.667 12.167 -225 36.5
s-131.666 59.833 -186.999 106.5c-61.333 53.333 -108.833 115.5 -142.5 186.5s-50.5 145.5 -50.5 223.5c0 78.667 17 153.667 51 225s81.333 133 142 185c54 46 116 81.333 186 106s145.333 37 226 37c110 0 209.167 -22.167 297.5 -66.5s161.833 -108.833 220.5 -193.5
c29.333 -42 51.666 -89.833 66.999 -143.5s23 -110.834 23 -171.501l-1 -36zM563 660.001l227 -1c0 19.333 -2.66699 36.5 -8 51.5s-13 27.833 -23 38.5c-18 19.333 -45 29 -81 29c-32 0 -57.667 -10 -77 -30s-32 -49.333 -38 -88z" />
    <glyph glyph-name="f" unicode="f" horiz-adv-x="872" 
d="M176 0l-0.000976562 653h-135v381h135v117c0 142 38.333 251.5 115 328.5s186.667 115.5 330 115.5c36.667 0 73.334 -2 110.001 -6s75 -10 115 -18v-389l-22 3l-50 5c-33.333 0 -58 -9.33301 -74 -28c-14.667 -18.667 -22 -51 -22 -97v-31h168v-381h-168v-653h-502z" />
    <glyph glyph-name="g" unicode="g" horiz-adv-x="1389" 
d="M565 541c0 -40.667 11.167 -72.667 33.5 -96s52.833 -35 91.5 -35c38 0 68.667 12 92 36s35 55.667 35 95c0 40 -11.667 72.167 -35 96.5s-54 36.5 -92 36.5c-36.667 0 -66.667 -12.333 -90 -37s-35 -56.667 -35 -96zM805 94l-0.00195312 90.001
c-46 -51.333 -95.333 -89.333 -148 -114c-25.333 -11.333 -52.666 -20.333 -81.999 -27s-59.333 -10 -90 -10c-119.333 0 -218.666 45.667 -297.999 137s-119 208 -119 350c0 164.667 38 297 114 397s177 150 303 150c64.667 0 123 -13.333 175 -40
s100.333 -68.667 145 -126v133h481v-884c0 -90.667 -4 -158.5 -12 -203.5s-21 -86.5 -39 -124.5c-42.667 -88.667 -118 -156 -226 -202s-245.667 -69 -413 -69c-94.667 0 -181.667 8.16699 -261 24.5s-152.666 40.5 -219.999 72.5l108 334c28 -18 55.667 -33.5 83 -46.5
s55.666 -24.167 84.999 -33.5c55.333 -18 110 -27 164 -27c82 0 144.167 18.667 186.5 56s63.5 91.666 63.5 162.999z" />
    <glyph glyph-name="h" unicode="h" horiz-adv-x="1376" 
d="M109 0l0.000976562 1550h495v-428c0 -20.667 -0.333008 -46.334 -1 -77.001s-1 -50.667 -1 -60l-6 -94c43.333 59.333 91.333 103.5 144 132.5s112 43.5 178 43.5c110 0 197.167 -33.333 261.5 -100s96.5 -157.667 96.5 -273v-694h-504v522
c0 52 -5.16699 87.5 -15.5 106.5s-28.5 28.5 -54.5 28.5c-28.667 0 -50.834 -11.333 -66.501 -34s-23.5 -56.334 -23.5 -101.001v-522h-503z" />
    <glyph glyph-name="i" unicode="i" horiz-adv-x="739" 
d="M641 1356c0 -74 -24.333 -132.835 -73 -176.502s-114.334 -65.5 -197.001 -65.5s-148.834 22 -198.501 66s-74.5 102.667 -74.5 176c0 72.667 24.333 130.334 73 173.001s115.334 64 200.001 64s150.834 -21.167 198.501 -63.5s71.5 -100.166 71.5 -173.499z
M119 -0.00195312v1034h502v-1034h-502z" />
    <glyph glyph-name="j" unicode="j" horiz-adv-x="739" 
d="M641 1356c0 -74 -24.333 -132.835 -73 -176.502s-114.334 -65.5 -197.001 -65.5s-148.834 22 -198.501 66s-74.5 102.667 -74.5 176c0 72.667 24.333 130.334 73 173.001s115.334 64 200.001 64s150.834 -21.167 198.501 -63.5s71.5 -100.166 71.5 -173.499z
M119 -446.002v1480h502v-1480h-502z" />
    <glyph glyph-name="k" unicode="k" horiz-adv-x="1395" 
d="M109 0v1550h497v-911l211 395h588l-367 -497l387 -537h-594l-225 387v-387h-497z" />
    <glyph glyph-name="l" unicode="l" horiz-adv-x="739" 
d="M119 0v1550h502v-1550h-502z" />
    <glyph glyph-name="m" unicode="m" horiz-adv-x="1952" 
d="M109 0l-0.00195312 1034h479v-145c39.333 61.333 82.833 106.333 130.5 135s101.834 43 162.501 43c72.667 0 133 -17.5 181 -52.5s87.333 -90.5 118 -166.5c38.667 71.333 86.667 125.666 144 162.999s121.333 56 192 56c100.667 0 181.334 -33.5 242.001 -100.5
s91 -157.167 91 -270.5v-696h-485v520c0 51.333 -4.83301 86.666 -14.5 105.999s-26.167 29 -49.5 29c-26 0 -46 -11 -60 -33c-12.667 -23.333 -19 -57.333 -19 -102v-520h-478v520c0 50.667 -4.83301 85.834 -14.5 105.501s-26.5 29.5 -50.5 29.5
c-26.667 0 -47 -11 -61 -33c-12.667 -23.333 -19 -57.333 -19 -102v-520h-489z" />
    <glyph glyph-name="n" unicode="n" horiz-adv-x="1376" 
d="M109 0v1034h487v-143c43.333 59.333 91.333 103.5 144 132.5s112 43.5 178 43.5c110 0 197.167 -33.333 261.5 -100s96.5 -157.667 96.5 -273v-694h-502v522c0 51.333 -5.16699 86.666 -15.5 105.999s-29.166 29 -56.499 29c-28.667 0 -50.834 -11.333 -66.501 -34
s-23.5 -56.334 -23.5 -101.001v-522h-503z" />
    <glyph glyph-name="o" unicode="o" horiz-adv-x="1331" 
d="M666 373c35.333 0 64.501 13.167 87.501 39.5s34.5 60.166 34.5 101.499c0 42.667 -11.167 76.834 -33.5 102.501s-51.833 38.5 -88.5 38.5s-66.334 -12.833 -89.001 -38.5s-34 -59.834 -34 -102.501c0 -41.333 11 -75.166 33 -101.499s52 -39.5 90 -39.5zM1270 514
c0 -39.333 -4 -77.3311 -12 -113.998s-20.667 -73 -38 -109c-33.333 -70.667 -81 -133 -143 -187c-53.333 -45.333 -115.333 -80.5 -186 -105.5s-145.667 -37.5 -225 -37.5c-80 0 -155 12 -225 36s-132.333 59.667 -187 107c-60.667 51.333 -108 113.166 -142 185.499
s-51 147.166 -51 224.499c0 78.667 17 153.667 51 225s81.333 133 142 185c54 46 116 81.333 186 106s145.333 37 226 37s155.667 -12.167 225 -36.5s132 -59.833 188 -106.5c60.667 -52.667 107.667 -114.667 141 -186s50 -146 50 -224z" />
    <glyph glyph-name="p" unicode="p" horiz-adv-x="1389" 
d="M717 365c38.667 0 69.8311 13.834 93.498 41.501s35.5 64.167 35.5 109.5c0 44 -12 80.333 -36 109s-55 43 -93 43c-37.333 0 -68.666 -14 -93.999 -42c-23.333 -28.667 -35 -65.334 -35 -110.001c0 -45.333 11.833 -81.833 35.5 -109.5s54.834 -41.5 93.501 -41.5z
M108.997 -445.999l0.00292969 1480h479v-137c43.333 56 91.666 98.333 144.999 127s112 43 176 43c123.333 0 223.666 -51 300.999 -153c38 -50.667 66.667 -109.667 86 -177s29 -143.666 29 -228.999c0 -160.667 -39.167 -291.667 -117.5 -393s-177.833 -152 -298.5 -152
c-66 0 -125.667 15 -179 45s-100 74.333 -140 133c3.33301 -18 5.66602 -32.5 6.99902 -43.5s2 -23.833 2 -38.5l3 -98v-407h-493z" />
    <glyph glyph-name="q" unicode="q" horiz-adv-x="1389" 
d="M549 516c0 -45.333 11.8311 -81.832 35.498 -109.499s54.834 -41.5 93.501 -41.5s69.834 13.833 93.501 41.5s35.5 64.167 35.5 109.5c0 44 -11.833 80.333 -35.5 109s-54.834 43 -93.501 43c-37.333 0 -68.666 -14 -93.999 -42
c-23.333 -28.667 -35 -65.334 -35 -110.001zM1286 -445.999l-493 0.00195312v407c0 15.333 0.333008 34.833 1 58.5s1 39.5 1 47.5c0 15.333 0.5 26.666 1.5 33.999s3.16699 20.666 6.5 39.999c-40 -58 -86.667 -102.167 -140 -132.5s-112.666 -45.5 -177.999 -45.5
c-120 0 -219.5 51 -298.5 153s-118.5 232.667 -118.5 392c0 168 38.167 303.167 114.5 405.5s177.166 153.5 302.499 153.5c64 0 122 -13.667 174 -41s100.667 -70.333 146 -129v137h481v-1480z" />
    <glyph glyph-name="r" unicode="r" horiz-adv-x="999" 
d="M109 0l-0.00195312 1034h487v-145c42.667 58.667 90.834 103 144.501 133s112.834 45 177.501 45l22 -1l14 -1v-502c-27.333 14.667 -53 25.834 -77 33.501s-45.333 11.5 -64 11.5c-64 0 -113.5 -17.333 -148.5 -52s-52.5 -83.334 -52.5 -146.001v-410h-503z" />
    <glyph glyph-name="s" unicode="s" horiz-adv-x="999" 
d="M0 74l132.999 319.002c54.667 -36.667 105.334 -64.834 152.001 -84.501s86 -29.5 118 -29.5c25.333 0 45.333 5 60 15s22 24.667 22 44c0 26 -29.667 45 -89 57l-47 10c-97.333 24 -168.166 59.5 -212.499 106.5s-66.5 109.167 -66.5 186.5
c0 107.333 45.167 195.666 135.5 264.999s208.166 104 353.499 104c71.333 0 140.5 -6.83301 207.5 -20.5s129.5 -34.167 187.5 -61.5l-123 -311c-44.667 30 -86.167 53.167 -124.5 69.5s-71.166 24.5 -98.499 24.5c-21.333 0 -39.333 -4.83301 -54 -14.5
s-22 -22.5 -22 -38.5c0 -26 39.333 -47.333 118 -64l44 -10c100.667 -24 174.667 -59.167 222 -105.5s71 -106.833 71 -181.5c0 -116 -46.833 -210.5 -140.5 -283.5s-216.834 -109.5 -369.501 -109.5c-41.333 0 -82.333 2.33301 -123 7s-81.334 12 -122.001 22
c-79.333 18 -156.666 46 -231.999 84z" />
    <glyph glyph-name="t" unicode="t" horiz-adv-x="856" 
d="M176 0v653h-141v381h141v342h502v-342h143v-381h-143v-653h-502z" />
    <glyph glyph-name="u" unicode="u" horiz-adv-x="1339" 
d="M94 1034h493.998v-506c0 -73.333 5.66699 -120.333 17 -141c12.667 -20.667 34.334 -31 65.001 -31c29.333 0 50 10 62 30s18 67.333 18 142v506h493v-557c0 -177.333 -46 -307.666 -138 -390.999s-237 -125 -435 -125c-199.333 0 -345.166 41.167 -437.499 123.5
s-138.5 213.166 -138.5 392.499v557z" />
    <glyph glyph-name="v" unicode="v" horiz-adv-x="1229" 
d="M385 0l-444 1034h532l102 -358l26 -94l11 -61c2.66699 27.333 12.667 70.666 30 129.999l7 24l101 359h538l-448 -1034h-455z" />
    <glyph glyph-name="w" unicode="w" horiz-adv-x="1782" 
d="M356 0l-404.999 1034h530l88 -395c6 -26.667 11 -55 15 -85l10 -95c5.33301 41.333 10.666 75.833 15.999 103.5s11.666 53.167 18.999 76.5l106 395h330l96 -407l14 -72l15 -96l15 101c6.66699 37.333 14 70.333 22 99l94 375h530l-444 -1034h-395l-88 325l-6 22
c-15.333 54.667 -25.666 100 -30.999 136c-4 -32.667 -13 -75.334 -27 -128.001l-8 -29l-88 -326h-408z" />
    <glyph glyph-name="x" unicode="x" horiz-adv-x="1284" 
d="M-66 0l416 535l-385 499h563l68 -151l21 -52l14 -46c4 21.333 13.333 47.333 28 78l9 20l67 151h568l-369 -499l422 -535h-596l-82 152c-8 15.333 -15 31.333 -21 48l-16 52c-4 -22 -8.83301 -41 -14.5 -57s-12.5 -30.667 -20.5 -44l-86 -151h-586z" />
    <glyph glyph-name="y" unicode="y" horiz-adv-x="1300" 
d="M410 90l-448.999 944h551l78 -264l3 -10c35.333 -123.333 56.666 -217 63.999 -281l46 192l28 105l76 258h516l-631 -1456h-534z" />
    <glyph glyph-name="z" unicode="z" horiz-adv-x="1120" 
d="M-2 0l412 647h-344v387h1079l-410 -641h357v-393h-1094z" />
    <glyph glyph-name="braceleft" unicode="{" 
d="M905 1192l-23.002 0.999023l-20 1c-58 0 -97 -10 -117 -30s-30 -62.667 -30 -128v-239c0 -89.333 -15.5 -152.166 -46.5 -188.499s-87.833 -62.5 -170.5 -78.5c81.333 -14.667 137.833 -40.5 169.5 -77.5s47.5 -99.167 47.5 -186.5v-241
c0 -64.667 9.83301 -106.834 29.5 -126.501s58.167 -29.5 115.5 -29.5l22 1l23 1v-285h-80c-95.333 0 -166.5 3.33301 -213.5 10s-86.167 18.334 -117.5 35.001c-40 20 -68.167 48.167 -84.5 84.5s-24.5 98.5 -24.5 186.5v258c0 84 -15.5 143.5 -46.5 178.5
s-83.833 52.5 -158.5 52.5l-17 -1l-18 -1v283l18 -1l17 -1c73.333 0 125.833 17.333 157.5 52s47.5 94.334 47.5 179.001v258c0 87.333 8 149.5 24 186.5s44.333 65.833 85 86.5c31.333 15.333 71.333 26.666 120 33.999c22.667 3.33301 51.834 6 87.501 8
s76.834 3 123.501 3h80v-285z" />
    <glyph glyph-name="bar" unicode="|" 
d="M653 1565v-2048h-280v2048h280z" />
    <glyph glyph-name="braceright" unicode="}" 
d="M641 1159l0.000976562 -258c0 -84 15.5 -143.5 46.5 -178.5s83.833 -52.5 158.5 -52.5l16 1l19 1v-283l-19 1l-16 1c-74 0 -126.667 -17.333 -158 -52s-47 -94.334 -47 -179.001v-258c0 -86.667 -8.16699 -148.667 -24.5 -186s-45.166 -66.333 -86.499 -87
c-30 -15.333 -68.333 -26.333 -115 -33c-20.667 -2.66699 -48.834 -5 -84.501 -7s-74.167 -3 -115.5 -3h-94v283l23 -1l20 -1c58 0 97 10 117 30s30 62.667 30 128v241c0 88.667 15.5 150.834 46.5 186.501s87.833 61.5 170.5 77.5c-82 14 -138.667 39.5 -170 76.5
s-47 99.833 -47 188.5v241c0 64 -10 106.333 -30 127s-59 31 -117 31l-20 -1l-23 -1v285h80c96 0 166 -3.66699 210 -11c48 -6 87.667 -17.333 119 -34c39.333 -19.333 67.666 -48.333 84.999 -87s26 -100.667 26 -186z" />
    <glyph glyph-name="asciitilde" unicode="~" horiz-adv-x="1706" 
d="M1530 543c-66 -44.667 -129.996 -78.334 -191.996 -101.001c-30.667 -10.667 -60.334 -18.667 -89.001 -24s-58.667 -8 -90 -8c-38.667 0 -76.834 3.83301 -114.501 11.5s-88.167 22.834 -151.5 45.501c-42 14 -77.833 25.333 -107.5 34s-58.834 16 -87.501 22
c-48 9.33301 -93.667 14 -137 14c-56.667 0 -115.334 -12.5 -176.001 -37.5s-129.667 -65.167 -207 -120.5v299c78 49.333 150.167 85.5 216.5 108.5s130.166 34.5 191.499 34.5c38 0 79 -4 123 -12c20 -4 43.667 -9.5 71 -16.5s55.333 -15.167 84 -24.5l64 -22
c101.333 -36 179.666 -54 234.999 -54c56.667 0 114.834 12 174.501 36s123.834 62 192.501 114v-299z" />
    <glyph glyph-name="nonbreakingspace" unicode="&#xa0;" horiz-adv-x="1403" 
 />
    <glyph glyph-name="exclamdown" unicode="&#xa1;" horiz-adv-x="768" 
d="M135 926h496v-965h-496v965zM100 1278c0 65.333 27.333 121.668 82 169.001s121.667 71 201 71c80.667 0 148.334 -23.333 203.001 -70s82 -103.334 82 -170.001c0 -66 -27.833 -122.5 -83.5 -169.5s-122.834 -70.5 -201.501 -70.5s-145.5 23.5 -200.5 70.5
s-82.5 103.5 -82.5 169.5z" />
    <glyph glyph-name="cent" unicode="&#xa2;" horiz-adv-x="1403" 
d="M1065 713c-25.333 22.667 -52.499 39.8301 -81.499 51.4971s-58.5 17.5 -88.5 17.5c-50 0 -90.167 -13.167 -120.5 -39.5s-45.5 -62.166 -45.5 -107.499c0 -42.667 14.667 -77.667 44 -105s67.333 -41 114 -41c29.333 0 59.166 6.5 89.499 19.5s59.833 32.5 88.5 58.5
l-8 -415c-12 -6 -24.667 -11.667 -38 -17s-28.333 -10.666 -45 -15.999l-122 -31v-123h-227v135c-126 36 -224.5 101.5 -295.5 196.5s-106.5 207.833 -106.5 338.5c0 132 37.5 247 112.5 345s174.167 161.667 297.5 191v121h229v-110
c30 -3.33301 59.5 -8.66602 88.5 -15.999l58.5 -15c10 -2.66699 28.667 -8.66699 56 -18v-420z" />
    <glyph glyph-name="sterling" unicode="&#xa3;" horiz-adv-x="1403" 
d="M750 555l0.996094 -10.001l1 -10c0 -28 -8.16699 -54 -24.5 -78s-43.833 -49.333 -82.5 -76v-14c19.333 6.66699 37.833 11.5 55.5 14.5s30.5 4.66699 38.5 5s14.333 0.5 19 0.5c43.333 0 95.666 -9.83301 156.999 -29.5s101 -29.5 119 -29.5c34 0 62.833 8 86.5 24
s44.834 42 63.501 78l241 -233c-50.667 -79.333 -110.667 -138.5 -180 -177.5s-147.666 -58.5 -234.999 -58.5c-41.333 0 -82.333 3.33301 -123 10s-84.667 17.667 -132 33c-87.333 27.333 -135.666 41.666 -144.999 42.999l-39 9c-26.667 6.66699 -51 10 -73 10
c-34 0 -65.667 -7 -95 -21s-59.333 -36.667 -90 -68l-188 306c22 29.333 45.167 52.5 69.5 69.5s51.5 27.833 81.5 32.5c14 16 24.333 33 31 51s10 35.667 10 53c0 8 -1 18 -3 30c-3.33301 12.667 -5.66602 22.334 -6.99902 29.001l-2 7h-201v305h127
c-16 39.333 -29.333 78.333 -40 117c-3.33301 14.667 -6.33301 31.834 -9 51.501s-4 36.5 -4 50.5c0 122 51.333 219.167 154 291.5s242 108.5 418 108.5c92.667 0 173.834 -10 243.501 -30s129 -50.667 178 -92s86.5 -92 112.5 -152s39 -129.333 39 -208l-471 1
c0 38 -10 67.833 -30 89.5s-48.333 32.5 -85 32.5c-32 0 -58.333 -8.66699 -79 -26s-31 -40 -31 -68c0 -10 3.66699 -26.333 11 -49s19.333 -54.667 36 -96l8 -21h399v-305h-331z" />
    <glyph glyph-name="currency" unicode="&#xa4;" horiz-adv-x="1241" 
d="M866 885c0 64.667 -24.332 121.334 -72.999 170.001s-105.334 73 -170.001 73c-66 0 -123.5 -24.333 -172.5 -73s-73.5 -105.334 -73.5 -170.001c0 -65.333 24 -122.333 72 -171s106 -73 174 -73c66 0 123 24 171 72s72 105.333 72 172zM385.001 1253
c35.333 23.333 72.333 40.502 111 51.502s81 16.5 127 16.5c22 0 43.667 -1.33301 65 -4s41.666 -7 60.999 -13c38.667 -10 75 -27 109 -51l199 199l133 -135l-197 -203c20.667 -34 37.334 -71 50.001 -111c5.33301 -20 9.33301 -39.167 12 -57.5s4 -38.5 4 -60.5
c0 -42.667 -5.66699 -82.334 -17 -119.001c-10 -38.667 -26.333 -75.667 -49 -111l197 -200l-133 -138l-199 201c-33.333 -22.667 -70 -39.834 -110 -51.501s-81.667 -17.5 -125 -17.5c-22 0 -43.667 1.33301 -65 4s-41.666 7 -60.999 13
c-38 11.333 -75.333 28.666 -112 51.999l-199 -201l-133 138l197 200c-20.667 32.667 -37.334 69 -50.001 109c-10.667 40.667 -16 81.667 -16 123c0 42.667 5.5 82.834 16.5 120.501s27.5 73.167 49.5 106.5l-197 203l133 135z" />
    <glyph glyph-name="yen" unicode="&#xa5;" horiz-adv-x="1511" 
d="M506 0v461h-473v219h430l-98 164h-332v221h200l-231 371h541l151 -314l33 -71l27 -66l33 85l24 52l152 314h538l-237 -371h206v-221h-346l-104 -164h450v-219h-491v-461h-473z" />
    <glyph glyph-name="brokenbar" unicode="&#xa6;" 
d="M653 408v-758h-280v758h280zM653 1432v-758h-280v758h280z" />
    <glyph glyph-name="section" unicode="&#xa7;" horiz-adv-x="1327" 
d="M647 403c40.667 0 73.667 13.166 99 39.499s38 60.5 38 102.5c0 42.667 -12.333 76.834 -37 102.501s-58 38.5 -100 38.5c-40.667 0 -73.667 -13 -99 -39s-38 -60 -38 -102s12.5 -76.167 37.5 -102.5s58.167 -39.5 99.5 -39.5zM311 855.999
c-54 22 -95.1641 54.665 -123.497 97.998s-42.5 95.333 -42.5 156c0 118 48 212.333 144 283s226.333 106 391 106c171.333 0 301.166 -36.667 389.499 -110s132.5 -181.333 132.5 -324h-397v14c0 36 -11.333 63.833 -34 83.5s-54.334 29.5 -95.001 29.5
s-72.667 -9.66699 -96 -29s-35 -45.333 -35 -78c0 -55.333 62 -91.666 186 -108.999l69 -9c92 -14.667 156.333 -28.334 193 -41.001c40 -12 74.333 -28.333 103 -49c50 -36 88.333 -81.333 115 -136c13.333 -28 23.333 -56.5 30 -85.5s10 -61.167 10 -96.5
c0 -82 -20 -151 -60 -207s-98.333 -96.333 -175 -121c55.333 -23.333 96.5 -56.333 123.5 -99s40.5 -96.334 40.5 -161.001c0 -117.333 -48.333 -210.833 -145 -280.5s-227.334 -104.5 -392.001 -104.5c-163.333 0 -290.833 37.333 -382.5 112
s-137.5 179.334 -137.5 314.001h401v-18c0 -38 11 -67 33 -87s54 -30 96 -30c40 0 72.167 9.83301 96.5 29.5s36.5 45.5 36.5 77.5c0 56 -65.333 95 -196 117l-66 12c-164.667 30 -280.5 77.333 -347.5 142s-100.5 156.334 -100.5 275.001c0 81.333 20 149.833 60 205.5
s98.333 95.834 175 120.501z" />
    <glyph glyph-name="dieresis" unicode="&#xa8;" 
d="M557 1356c0 38 15 72.001 45 102.001s65 45 105 45s74.5 -14.333 103.5 -43s43.5 -63.334 43.5 -104.001c0 -44 -13.833 -80 -41.5 -108s-62.834 -42 -105.501 -42c-41.333 0 -76.666 14.5 -105.999 43.5s-44 64.5 -44 106.5zM168 1356c0 38 15 72.002 45 102.002
s64.667 45 104 45c41.333 0 76.333 -14.333 105 -43s43 -63.334 43 -104.001c0 -44 -13.833 -80 -41.5 -108s-63.167 -42 -106.5 -42c-41.333 0 -76.5 14.667 -105.5 44s-43.5 64.666 -43.5 105.999z" />
    <glyph glyph-name="copyright" unicode="&#xa9;" horiz-adv-x="1706" 
d="M987 883c0 40.667 -12.166 73.3359 -36.499 98.0029s-55.833 37 -94.5 37c-47.333 0 -85.166 -23.833 -113.499 -71.5s-42.5 -114.834 -42.5 -201.501c0 -87.333 13.667 -152.833 41 -196.5s68.333 -65.5 123 -65.5c39.333 0 70.333 12.667 93 38s34 60.333 34 105l248 1
c0 -48.667 -9.33301 -92.834 -28 -132.501s-45.667 -74.834 -81 -105.501c-68.667 -58.667 -159.334 -88 -272.001 -88c-130 0 -232.167 38.667 -306.5 116s-111.5 184 -111.5 320c0 132 37.167 239.5 111.5 322.5s170.5 124.5 288.5 124.5c117.333 0 210 -26.667 278 -80
c35.333 -26.667 62.666 -58.5 81.999 -95.5s29 -78.833 29 -125.5h-242zM1452 743.002c0 79.333 -15.0029 155.167 -45.0029 227.5s-73.167 137 -129.5 194s-120.666 100.667 -192.999 131s-149.166 45.5 -230.499 45.5c-82.667 0 -159.5 -14.333 -230.5 -43
s-134.667 -72 -191 -130s-99.833 -123.333 -130.5 -196c-14.667 -36 -26 -73.167 -34 -111.5s-12 -77.5 -12 -117.5c0 -78.667 15 -154.5 45 -227.5s73.667 -137.833 131 -194.5s122 -100.167 194 -130.5s148 -45.5 228 -45.5s156.333 15.167 229 45.5
s138.334 74.833 197.001 133.5c54.667 54 97 117 127 189s45 148.667 45 230zM851.998 1493c104 0 201.5 -18.5029 292.5 -55.5029s172.5 -91.5 244.5 -163.5c68.667 -69.333 122 -150.166 160 -242.499s57 -189.166 57 -290.499c0 -53.333 -4.33301 -103 -13 -149
s-23 -92.667 -43 -140c-36.667 -90 -90.334 -169 -161.001 -237c-73.333 -71.333 -156.666 -126.666 -249.999 -165.999s-189 -59 -287 -59s-192.333 19 -283 57s-172.167 93 -244.5 165s-127.5 153.167 -165.5 243.5s-57 185.5 -57 285.5c0 99.333 19 195.333 57 288
s93.667 175.667 167 249c68 70 147.667 123.333 239 160s187 55 287 55z" />
    <glyph glyph-name="ordfeminine" unicode="&#xaa;" horiz-adv-x="1042" 
d="M412 1106c0 -31.333 8.83203 -56.667 26.499 -76s40.834 -29 69.501 -29c29.333 0 53 9.5 71 28.5s27 44.5 27 76.5c0 30.667 -8.83301 55.667 -26.5 75s-41.5 29 -71.5 29c-28 0 -51.333 -9.66699 -70 -29c-17.333 -19.333 -26 -44.333 -26 -75zM617.999 740.999v109
c-36 -46 -74.833 -80 -116.5 -102s-87.167 -33 -136.5 -33c-90.667 0 -165.667 35.667 -225 107s-89 163.333 -89 276c0 117.333 28.833 211.833 86.5 283.5s133.5 107.5 227.5 107.5c46.667 0 90 -9.83301 130 -29.5s76.333 -49.5 109 -89.5v96h361v-725h-347z" />
    <glyph glyph-name="guillemotleft" unicode="&#xab;" horiz-adv-x="1063" 
d="M362 80l-296 434l296 434l195 -133l-219 -301l217 -301zM803 80l-297 434l297 434l192 -133l-217 -301l215 -301z" />
    <glyph glyph-name="logicalnot" unicode="&#xac;" horiz-adv-x="1706" 
d="M1452 868v-501h-272v235h-926v266h1198z" />
    <glyph glyph-name="minus" unicode="&#xad;" horiz-adv-x="983" 
d="M150 305v418h684v-418h-684z" />
    <glyph glyph-name="registered" unicode="&#xae;" horiz-adv-x="1706" 
d="M823 1006h-39v-193h54c38 0 67.167 8.16699 87.5 24.5s30.5 40.833 30.5 73.5s-10.667 56.667 -32 72s-55 23 -101 23zM862 1165c116 0 204.5 -20.166 265.5 -60.499s91.5 -99.833 91.5 -178.5c0 -52.667 -14.167 -97.834 -42.5 -135.501s-68.833 -65.5 -121.5 -83.5
l178 -355h-279l-145 312h-25v-312h-256v813h334zM1452 743.001c0 79.333 -15.0029 155.167 -45.0029 227.5s-73.167 137 -129.5 194s-120.666 100.667 -192.999 131s-149.166 45.5 -230.499 45.5c-82.667 0 -159.5 -14.333 -230.5 -43s-134.667 -72 -191 -130
s-99.833 -123.333 -130.5 -196c-14.667 -36 -26 -73.167 -34 -111.5s-12 -77.5 -12 -117.5c0 -78.667 15 -154.5 45 -227.5s73.667 -137.833 131 -194.5s122 -100.167 194 -130.5s148 -45.5 228 -45.5s156.333 15.167 229 45.5s138.334 74.833 197.001 133.5
c54.667 54 97 117 127 189s45 148.667 45 230zM851.997 1493c104 0 201.5 -18.5029 292.5 -55.5029s172.5 -91.5 244.5 -163.5c68.667 -69.333 122 -150.166 160 -242.499s57 -189.166 57 -290.499c0 -53.333 -4.33301 -103 -13 -149s-23 -92.667 -43 -140
c-36.667 -90 -90.334 -169 -161.001 -237c-73.333 -71.333 -156.666 -126.666 -249.999 -165.999s-189 -59 -287 -59s-192.333 19 -283 57s-172.167 93 -244.5 165s-127.5 153.167 -165.5 243.5s-57 185.5 -57 285.5c0 99.333 19 195.333 57 288s93.667 175.667 167 249
c68 70 147.667 123.333 239 160s187 55 287 55z" />
    <glyph glyph-name="macron" unicode="&#xaf;" 
d="M205 1272v182h614v-182h-614z" />
    <glyph glyph-name="degree" unicode="&#xb0;" horiz-adv-x="674" 
d="M489 1151c0 40 -14.999 75.333 -44.999 106s-66 46 -108 46c-40.667 0 -75.834 -14.833 -105.501 -44.5s-44.5 -65.5 -44.5 -107.5c0 -42.667 14.667 -79 44 -109s65.333 -45 108 -45c40.667 0 76 15.167 106 45.5s45 66.5 45 108.5zM338.001 1473
c88.667 0 164.333 -31.499 227 -94.499s94 -139.5 94 -229.5c0 -88 -31.333 -163.667 -94 -227s-139 -95 -229 -95c-88.667 0 -164.5 31.167 -227.5 93.5s-94.5 138.5 -94.5 228.5c0 89.333 32 165.666 96 228.999s140 95 228 95z" />
    <glyph glyph-name="plusminus" unicode="&#xb1;" horiz-adv-x="1706" 
d="M1452 231v-272h-1198v272h1198zM993 1262v-310h459v-272h-459v-309h-280v309h-459v272h459v310h280z" />
    <glyph glyph-name="twosuperior" unicode="&#xb2;" horiz-adv-x="926" 
d="M23 575l430 466.999c20.667 23.333 35 42.5 43 57.5s12 28.833 12 41.5c0 16 -5.16699 29.167 -15.5 39.5s-24.833 15.5 -43.5 15.5c-22 0 -38.167 -8.16699 -48.5 -24.5s-15.5 -42.166 -15.5 -77.499h-322v10c0 112 35 199.667 105 263s166.333 95 289 95
c117.333 0 211.833 -29.167 283.5 -87.5s107.5 -135.5 107.5 -231.5c0 -50.667 -12.5 -96 -37.5 -136s-67.167 -82.667 -126.5 -128l-82 -62h244v-242h-823z" />
    <glyph glyph-name="threesuperior" unicode="&#xb3;" horiz-adv-x="926" 
d="M418 1120l13.9971 -0.000976562c29.333 0 51.666 5 66.999 15s23 25 23 45c0 14.667 -5.16699 26.834 -15.5 36.501s-23.5 14.5 -39.5 14.5c-15.333 0 -28 -5.33301 -38 -16c-8.66699 -10.667 -13 -26 -13 -46l-318 1c0 93.333 32.333 165.333 97 216s158 76 280 76
c110.667 0 198.834 -22.333 264.501 -67s98.5 -104 98.5 -178c0 -45.333 -11 -82.166 -33 -110.499s-57 -50.5 -105 -66.5c56.667 -12 99.834 -35.333 129.501 -70s44.5 -79.334 44.5 -134.001c0 -85.333 -36.167 -153.833 -108.5 -205.5s-169.166 -77.5 -290.499 -77.5
c-131.333 0 -234.166 29.167 -308.499 87.5s-111.5 139.833 -111.5 244.5l332 1c0 -27.333 6.33301 -49 19 -65s31 -24 55 -24c22 0 40.167 6.5 54.5 19.5s21.5 30.167 21.5 51.5c0 24 -8.33301 42.333 -25 55s-40 19 -70 19h-24v178z" />
    <glyph glyph-name="acute" unicode="&#xb4;" 
d="M809 1522l-311 -351h-166l180 351h297z" />
    <glyph glyph-name="mu" unicode="&#xb5;" horiz-adv-x="1372" 
d="M602 1087l-84 -613.998l-3 -34l-1 -19c0 -44.667 10.333 -78.334 31 -101.001c21.333 -21.333 53.333 -32 96 -32c52 0 93.167 17.167 123.5 51.5s50.5 88.166 60.5 161.499l84 587h418l-158 -1087h-368l18 131c-24.667 -46 -52.167 -80 -82.5 -102s-65.5 -33 -105.5 -33
s-74.833 10.333 -104.5 31s-53.5 52 -71.5 94l-72 -543h-412l209 1509h422z" />
    <glyph glyph-name="paragraph" unicode="&#xb6;" 
d="M1014 1337h-101v-1337h-202v1337h-140v-1337h-202v784c-53.333 0 -101.5 8.83301 -144.5 26.5s-81.833 43.167 -116.5 76.5c-65.333 63.333 -98 144.333 -98 243c0 104 35.5 188.167 106.5 252.5s165.167 96.5 282.5 96.5h615v-142z" />
    <glyph glyph-name="cedilla" unicode="&#xb8;" 
d="M238 -440l0.000976562 141.001c15.333 -4 36.166 -9 62.499 -15s58.666 -12.167 96.999 -18.5s72.5 -9.5 102.5 -9.5c26.667 0 46.667 5.66699 60 17s20 28.333 20 51c0 20 -8.83301 34.833 -26.5 44.5s-47.834 14.5 -90.501 14.5l-25 -1l-26 -1v217h123v-84h18
c74 0 130.667 -16.5 170 -49.5s59 -80.5 59 -142.5c0 -65.333 -22.167 -116.5 -66.5 -153.5s-106.833 -55.5 -187.5 -55.5c-43.333 0 -89.166 3.66699 -137.499 11s-99.166 18.666 -152.499 33.999z" />
    <glyph glyph-name="onesuperior" unicode="&#xb9;" horiz-adv-x="926" 
d="M330 1180h-144v266h492v-871h-348v605z" />
    <glyph glyph-name="ordmasculine" unicode="&#xba;" horiz-adv-x="999" 
d="M500 1001c27.333 0 49.5 9.33301 66.5 28s25.5 43 25.5 73c0 29.333 -8.66699 53 -26 71c-16 18 -38 27 -66 27c-27.333 0 -49.5 -9.16699 -66.5 -27.5s-25.5 -41.833 -25.5 -70.5c0 -30 8.16699 -54.333 24.5 -73s38.833 -28 67.5 -28zM952 1102
c0 -55.333 -12.168 -107.834 -36.501 -157.501s-59.833 -92.834 -106.5 -129.501c-40.667 -32 -87.834 -56.667 -141.501 -74s-109.5 -26 -167.5 -26c-61.333 0 -117.5 8.16699 -168.5 24.5s-98.667 41.833 -143 76.5s-79 77.334 -104 128.001s-37.5 103.334 -37.5 158.001
c0 55.333 12.167 107.5 36.5 156.5s59.833 92.5 106.5 130.5c40.667 31.333 87.834 55.833 141.501 73.5s109.834 26.5 168.501 26.5c62 0 118 -8.66699 168 -26c26.667 -8 51.5 -18 74.5 -30s45.167 -26.667 66.5 -44c45.333 -36 80.5 -79.333 105.5 -130
s37.5 -103 37.5 -157z" />
    <glyph glyph-name="guillemotright" unicode="&#xbb;" horiz-adv-x="1063" 
d="M698 80l-190 133l215 301l-217 301l192 133l297 -434zM260 80l-192 133l217 301l-219 301l194 133l297 -434z" />
    <glyph glyph-name="onequarter" unicode="&#xbc;" horiz-adv-x="2109" 
d="M1665 0v164h-395v213l346 442h364v-442h99v-213h-99v-164h-315zM1556 377h134v112l1 60c0 11.333 1.66699 21.333 5 30l-28 -49l-36 -51zM543 -39l813 1518h211l-817 -1518h-207zM315 1196h-139v248h471v-811h-332v563z" />
    <glyph glyph-name="onehalf" unicode="&#xbd;" horiz-adv-x="2109" 
d="M1247 0l411.999 436.001c10.667 11.333 19.5 21.5 26.5 30.5s12.167 16.5 15.5 22.5c7.33301 13.333 11 26.333 11 39c0 15.333 -5.16699 27.833 -15.5 37.5s-24.166 14.5 -41.499 14.5c-20 0 -35.333 -7.66699 -46 -23c-9.33301 -15.333 -14 -40 -14 -74h-307v11
c0 104 33.167 185.5 99.5 244.5s158.166 88.5 275.499 88.5c112.667 0 203 -27.333 271 -82s102 -126.334 102 -215.001c0 -46 -12.167 -88.333 -36.5 -127s-64.166 -78.667 -119.499 -120l-78 -58h232v-225h-787zM542.999 -38.999l813 1518h211l-817 -1518h-207z
M314.999 1196h-139v248h471v-811h-332v563z" />
    <glyph glyph-name="threequarters" unicode="&#xbe;" horiz-adv-x="2109" 
d="M1665 0v164h-395v213l346 442h364v-442h99v-213h-99v-164h-315zM1556 377h134v112l1 60c0 11.333 1.66699 21.333 5 30l-28 -49l-36 -51zM543 -39l813 1518h211l-817 -1518h-207zM399 1141h14.999c27.333 0 48.166 5 62.499 15s21.5 24 21.5 42
c0 14 -4.66699 25.333 -14 34c-2.66699 2 -7.16699 4.66699 -13.5 8s-14.5 5 -24.5 5c-15.333 0 -27.333 -4.83301 -36 -14.5s-13 -23.834 -13 -42.501h-304c0 87.333 31.167 154.5 93.5 201.5s151.833 70.5 268.5 70.5c103.333 0 186.833 -21.167 250.5 -63.5
s95.5 -97.5 95.5 -165.5c0 -41.333 -11 -75.5 -33 -102.5s-55.333 -47.5 -100 -61.5c53.333 -10.667 94.666 -32.5 123.999 -65.5s44 -75.5 44 -127.5c0 -79.333 -34.667 -143.166 -104 -191.499s-162.333 -72.5 -279 -72.5c-126 0 -224.167 27.5 -294.5 82.5
s-105.5 131.5 -105.5 229.5l318 2c0 -28 5.83301 -49 17.5 -63s28.834 -21 51.501 -21c20.667 0 37.834 6 51.501 18s20.5 27.667 20.5 47c0 22 -7.66699 39.167 -23 51.5s-37.666 18.5 -66.999 18.5h-23v166z" />
    <glyph glyph-name="questiondown" unicode="&#xbf;" horiz-adv-x="1247" 
d="M969 1286c0 -64.667 -27.668 -119.667 -83.001 -165s-122.666 -68 -201.999 -68c-78.667 0 -145.834 23 -201.501 69s-83.5 100.667 -83.5 164s27.5 117.833 82.5 163.5s122.5 68.5 202.5 68.5c80.667 0 148.334 -22.667 203.001 -68s82 -100 82 -164zM843.999 964
l-0.998047 -377.999l-64 15c-18 3.33301 -33.333 5 -46 5c-48 0 -86.333 -12.667 -115 -38s-43 -59.666 -43 -102.999c0 -32 7.66699 -57.667 23 -77c16.667 -18.667 38.667 -28 66 -28c28.667 0 50.667 10 66 30c8.66699 11.333 15.167 24.166 19.5 38.499
s6.5 31.833 6.5 52.5h504c0 -77.333 -15.167 -147.5 -45.5 -210.5s-73.833 -119.5 -130.5 -169.5c-106.667 -93.333 -246 -140 -418 -140c-173.333 0 -314 49.667 -422 149s-162 228 -162 386c0 143.333 53.167 259.666 159.5 348.999s245.5 134 417.5 134h32.5
c8.33301 0 26.166 -1.33301 53.499 -4c15.333 0 29.666 -0.833008 42.999 -2.5s32 -4.5 56 -8.5z" />
    <glyph glyph-name="Agrave" unicode="&#xc0;" horiz-adv-x="1507" 
d="M641 532l219 -0.000976562l-45 166c-22.667 85.333 -37.667 150 -45 194c-3.33301 20 -6.66602 42.167 -9.99902 66.5s-5 44.833 -5 61.5h-9c0 -19.333 -1 -36.666 -3 -51.999s-6.33301 -42.5 -13 -81.5s-21.334 -101.833 -44.001 -188.5zM-57 -0.000976562l522 1464h586
l512 -1464h-566l-47 184h-397l-45 -184h-565zM457 1973h297l180 -351h-166z" />
    <glyph glyph-name="Aacute" unicode="&#xc1;" horiz-adv-x="1507" 
d="M641 532l219 -0.000976562l-45 166c-22.667 85.333 -37.667 150 -45 194c-3.33301 20 -6.66602 42.167 -9.99902 66.5s-5 44.833 -5 61.5h-9c0 -19.333 -1 -36.666 -3 -51.999s-6.33301 -42.5 -13 -81.5s-21.334 -101.833 -44.001 -188.5zM-57 -0.000976562l522 1464h586
l512 -1464h-566l-47 184h-397l-45 -184h-565zM1051 1973l-311 -351h-166l180 351h297z" />
    <glyph glyph-name="Acircumflex" unicode="&#xc2;" horiz-adv-x="1507" 
d="M641 532l219 -0.000976562l-45 166c-22.667 85.333 -37.667 150 -45 194c-3.33301 20 -6.66602 42.167 -9.99902 66.5s-5 44.833 -5 61.5h-9c0 -19.333 -1 -36.666 -3 -51.999s-6.33301 -42.5 -13 -81.5s-21.334 -101.833 -44.001 -188.5zM-57 -0.000976562l522 1464h586
l512 -1464h-566l-47 184h-397l-45 -184h-565zM432 1622l185 351h274l182 -351h-153l-166 170l-168 -170h-154z" />
    <glyph glyph-name="Atilde" unicode="&#xc3;" horiz-adv-x="1507" 
d="M641 532l219 -0.000976562l-45 166c-22.667 85.333 -37.667 150 -45 194c-3.33301 20 -6.66602 42.167 -9.99902 66.5s-5 44.833 -5 61.5h-9c0 -19.333 -1 -36.666 -3 -51.999s-6.33301 -42.5 -13 -81.5s-21.334 -101.833 -44.001 -188.5zM-57 -0.000976562l522 1464h586
l512 -1464h-566l-47 184h-397l-45 -184h-565zM1086 1948c-20 -89.333 -47.668 -154.334 -83.001 -195.001s-80.666 -61 -135.999 -61l-38 3l-38 9l-92 27l-40 9l-28 3c-22 0 -40 -6 -54 -18s-26 -32 -36 -60h-119c18 84.667 44.667 146.834 80 186.501s80.333 59.5 135 59.5
h25c8 -2 14.667 -3.5 20 -4.5s10.5 -1.83301 15.5 -2.5s14.833 -3 29.5 -7l95 -27l26 -6l31 -2c22 0 40.167 7.16699 54.5 21.5s25.5 35.833 33.5 64.5h119z" />
    <glyph glyph-name="Adieresis" unicode="&#xc4;" horiz-adv-x="1507" 
d="M641 532l219 -0.000976562l-45 166c-22.667 85.333 -37.667 150 -45 194c-3.33301 20 -6.66602 42.167 -9.99902 66.5s-5 44.833 -5 61.5h-9c0 -19.333 -1 -36.666 -3 -51.999s-6.33301 -42.5 -13 -81.5s-21.334 -101.833 -44.001 -188.5zM-57 -0.000976562l522 1464h586
l512 -1464h-566l-47 184h-397l-45 -184h-565zM799 1807c0 38 15 72.001 45 102.001s65 45 105 45s74.5 -14.333 103.5 -43s43.5 -63.334 43.5 -104.001c0 -44 -13.833 -80 -41.5 -108s-62.834 -42 -105.501 -42c-41.333 0 -76.666 14.5 -105.999 43.5s-44 64.5 -44 106.5z
M410 1807c0 38 15 72.002 45 102.002s64.667 45 104 45c41.333 0 76.333 -14.333 105 -43s43 -63.334 43 -104.001c0 -44 -13.833 -80 -41.5 -108s-63.167 -42 -106.5 -42c-41.333 0 -76.5 14.667 -105.5 44s-43.5 64.666 -43.5 105.999z" />
    <glyph glyph-name="Aring" unicode="&#xc5;" horiz-adv-x="1507" 
d="M651 1704c0 -30 10.333 -55.333 31 -76s46 -31 76 -31c29.333 0 54.333 10.333 75 31s31 46 31 76s-10.167 55.5 -30.5 76.5s-45.5 31.5 -75.5 31.5c-29.333 0 -54.5 -10.5 -75.5 -31.5s-31.5 -46.5 -31.5 -76.5zM641 532l219 0.00292969l-51 185
c-5.33301 20 -11.5 46.5 -18.5 79.5s-11.5 55.833 -13.5 68.5c-8 53.333 -15 111.666 -21 174.999h-11c-6 -68.667 -14 -131.334 -24 -188.001c-4 -26.667 -8.33301 -51.334 -13 -74.001s-10 -43 -16 -61zM-57 0.00292969l536.001 1464l166 -4v4
c-46.667 20 -84.334 52 -113.001 96s-43 92 -43 144c0 73.333 26 136.333 78 189s115.667 79 191 79c74 0 137.167 -26.333 189.5 -79s78.5 -115.667 78.5 -189c0 -55.333 -13 -103.166 -39 -143.499s-65 -72.5 -117 -96.5v-4l164 4l529 -1464h-566l-47 184h-397l-45 -184
h-565z" />
    <glyph glyph-name="AE" unicode="&#xc6;" horiz-adv-x="1868" 
d="M637 528l219 0.00390625l-72 293c-9.33301 37.333 -16.333 72.666 -21 105.999c-2 18 -3.66699 34.667 -5 50s-2 31 -2 47h-13c0 -20.667 -0.833008 -39.334 -2.5 -56.001s-4 -34.334 -7 -53.001l-8.5 -51.5c-2.66699 -15.667 -6 -29.834 -10 -42.501zM-63 0.00390625
l518 1464h1026l135 -393h-442l51 -143h440l131 -381h-442l53 -150h440l138 -397h-998l-45 180h-397l-49 -180h-559z" />
    <glyph glyph-name="Ccedilla" unicode="&#xc7;" horiz-adv-x="1309" 
d="M717 -27l-59.002 11.998c-66.667 16 -126.334 38.667 -179.001 68c-129.333 74 -227.166 168.167 -293.499 282.5s-99.5 245.5 -99.5 393.5c0 56.667 4.33301 109.334 13 158.001s23 97.334 43 146.001c38 92.667 92.833 174.834 164.5 246.501
s155.834 126.167 252.501 163.5s200.334 56 311.001 56c60 0 118.833 -6.16699 176.5 -18.5s113.5 -30.833 167.5 -55.5v-542c-47.333 45.333 -96.5 79.5 -147.5 102.5s-103.5 34.5 -157.5 34.5c-86 0 -155.167 -26.333 -207.5 -79s-78.5 -123.334 -78.5 -212.001
c0 -85.333 25 -153.833 75 -205.5s117 -77.5 201 -77.5c26.667 0 52 2.33301 76 7s50 13 78 25c53.333 22.667 110.666 57.334 171.999 104.001l-17 -551c-55.333 -22.667 -112.166 -40 -170.499 -52s-116.166 -18 -173.499 -18h-24v-45h18c74 0 130.667 -16.5 170 -49.5
s59 -80.5 59 -142.5c0 -65.333 -22.167 -116.5 -66.5 -153.5s-106.833 -55.5 -187.5 -55.5c-43.333 0 -89.166 3.66699 -137.499 11s-99.166 18.666 -152.499 33.999v141c15.333 -4 36.166 -9 62.499 -15s58.666 -12.167 96.999 -18.5s72.5 -9.5 102.5 -9.5
c26.667 0 46.667 5.66699 60 17s20 28.333 20 51c0 20 -8.83301 34.833 -26.5 44.5s-47.834 14.5 -90.501 14.5l-25 -1l-26 -1v190z" />
    <glyph glyph-name="Egrave" unicode="&#xc8;" horiz-adv-x="1204" 
d="M137 0v1464h979v-397h-463v-141h420v-375h-420v-154h475v-397h-991zM328 1973h297l180 -351h-166z" />
    <glyph glyph-name="Eacute" unicode="&#xc9;" horiz-adv-x="1204" 
d="M137 0v1464h979v-397h-463v-141h420v-375h-420v-154h475v-397h-991zM922 1973l-311 -351h-166l180 351h297z" />
    <glyph glyph-name="Ecircumflex" unicode="&#xca;" horiz-adv-x="1204" 
d="M137 0v1464h979v-397h-463v-141h420v-375h-420v-154h475v-397h-991zM303 1622l185 351h274l182 -351h-153l-166 170l-168 -170h-154z" />
    <glyph glyph-name="Edieresis" unicode="&#xcb;" horiz-adv-x="1204" 
d="M137 0v1464h979v-397h-463v-141h420v-375h-420v-154h475v-397h-991zM670 1807c0 38 15 72.001 45 102.001s65 45 105 45s74.5 -14.333 103.5 -43s43.5 -63.334 43.5 -104.001c0 -44 -13.833 -80 -41.5 -108s-62.834 -42 -105.501 -42
c-41.333 0 -76.666 14.5 -105.999 43.5s-44 64.5 -44 106.5zM281 1807c0 38 15 72.002 45 102.002s64.667 45 104 45c41.333 0 76.333 -14.333 105 -43s43 -63.334 43 -104.001c0 -44 -13.833 -80 -41.5 -108s-63.167 -42 -106.5 -42c-41.333 0 -76.5 14.667 -105.5 44
s-43.5 64.666 -43.5 105.999z" />
    <glyph glyph-name="Igrave" unicode="&#xcc;" horiz-adv-x="829" 
d="M147 0v1464h535v-1464h-535zM119 1973h297l180 -351h-166z" />
    <glyph glyph-name="Iacute" unicode="&#xcd;" horiz-adv-x="829" 
d="M147 0v1464h535v-1464h-535zM713 1973l-311 -351h-166l180 351h297z" />
    <glyph glyph-name="Icircumflex" unicode="&#xce;" horiz-adv-x="829" 
d="M147 0v1464h535v-1464h-535zM94 1622l185 351h274l182 -351h-153l-166 170l-168 -170h-154z" />
    <glyph glyph-name="Idieresis" unicode="&#xcf;" horiz-adv-x="829" 
d="M147 0v1464h535v-1464h-535zM461 1807c0 38 15 72.001 45 102.001s65 45 105 45s74.5 -14.333 103.5 -43s43.5 -63.334 43.5 -104.001c0 -44 -13.833 -80 -41.5 -108s-62.834 -42 -105.501 -42c-41.333 0 -76.666 14.5 -105.999 43.5s-44 64.5 -44 106.5zM72 1807
c0 38 15 72.002 45 102.002s64.667 45 104 45c41.333 0 76.333 -14.333 105 -43s43 -63.334 43 -104.001c0 -44 -13.833 -80 -41.5 -108s-63.167 -42 -106.5 -42c-41.333 0 -76.5 14.667 -105.5 44s-43.5 64.666 -43.5 105.999z" />
    <glyph glyph-name="Eth" unicode="&#xd0;" horiz-adv-x="1708" 
d="M1069 524l-229.001 -0.00292969v344h809l3 -67l1 -39c0 -83.333 -8 -159.833 -24 -229.5s-39.333 -131.167 -70 -184.5c-74 -125.333 -170.167 -221.166 -288.5 -287.499s-252.5 -99.5 -402.5 -99.5c-110.667 0 -213.667 18.5 -309 55.5s-179.166 91.5 -251.499 163.5
s-127.5 154.333 -165.5 247c-18.667 46 -32.667 93.833 -42 143.5s-14 102.5 -14 158.5c0 110.667 18.833 212.167 56.5 304.5s92.334 173.833 164.001 244.5s155.667 124.834 252 162.501s199.5 56.5 309.5 56.5c149.333 0 282.166 -32.667 398.499 -98
s212.166 -161.666 287.499 -288.999l-469 -174c-24 40 -53.333 70.167 -88 90.5s-74.667 30.5 -120 30.5c-78 0 -140.167 -29.667 -186.5 -89s-69.5 -139 -69.5 -239c0 -103.333 23.333 -183.5 70 -240.5s112.667 -85.5 198 -85.5c50.667 0 91.834 10.667 123.501 32
s50.5 51 56.5 89zM538.999 1958l130.999 0.000976562c4 -46.667 20.833 -81.167 50.5 -103.5s74.167 -33.5 133.5 -33.5s104.5 11.333 135.5 34s46.5 57 46.5 103h131c0 -50 -8 -94.833 -24 -134.5s-37.333 -72.5 -64 -98.5c-50.667 -49.333 -125.667 -74 -225 -74
c-100 0 -176 25 -228 75c-27.333 26.667 -48.666 59.167 -63.999 97.5s-23 83.166 -23 134.499z" />
    <glyph glyph-name="Ntilde" unicode="&#xd1;" horiz-adv-x="1731" 
d="M137 0v1464h516l455 -766c-5.33301 30 -8.33301 47.667 -9 53c-2.66699 20 -4 40 -4 60c0 32 -0.333008 61 -1 87l-2 75v491h507v-1464h-520l-450 760c4 -26 7 -47.167 9 -63.5s3 -30.5 3 -42.5l4 -126v-528h-508zM1198 1948
c-20 -89.333 -47.668 -154.334 -83.001 -195.001s-80.666 -61 -135.999 -61l-38 3l-38 9l-92 27l-40 9l-28 3c-22 0 -40 -6 -54 -18s-26 -32 -36 -60h-119c18 84.667 44.667 146.834 80 186.501s80.333 59.5 135 59.5h25c8 -2 14.667 -3.5 20 -4.5s10.5 -1.83301 15.5 -2.5
s14.833 -3 29.5 -7l95 -27l26 -6l31 -2c22 0 40.167 7.16699 54.5 21.5s25.5 35.833 33.5 64.5h119z" />
    <glyph glyph-name="Ograve" unicode="&#xd2;" horiz-adv-x="1735" 
d="M868 453c73.333 0 132.668 25.167 178.001 75.5s68 117.166 68 200.499c0 84.667 -22.333 152.334 -67 203.001s-104.334 76 -179.001 76c-74 0 -133.667 -25.667 -179 -77s-68 -118.666 -68 -201.999c0 -42.667 5.5 -80.334 16.5 -113.001s28.167 -62 51.5 -88
c45.333 -50 105 -75 179 -75zM1651 729c0 -106.667 -19 -206.501 -57 -299.501s-93.333 -175 -166 -246s-157.167 -125.833 -253.5 -164.5s-198.5 -58 -306.5 -58c-108.667 0 -210.667 19 -306 57s-180.333 93.333 -255 166c-72 70 -126.833 151.333 -164.5 244
s-56.5 193 -56.5 301c0 108.667 18.5 208.834 55.5 300.501s91.833 173.5 164.5 245.5s157 127 253 165s199 57 309 57c109.333 0 211.833 -18.833 307.5 -56.5s180.5 -92.5 254.5 -164.5c70.667 -70 125.167 -151.5 163.5 -244.5s57.5 -193.833 57.5 -302.5zM571.002 1973
h297l180 -351h-166z" />
    <glyph glyph-name="Oacute" unicode="&#xd3;" horiz-adv-x="1735" 
d="M868 453c73.333 0 132.668 25.167 178.001 75.5s68 117.166 68 200.499c0 84.667 -22.333 152.334 -67 203.001s-104.334 76 -179.001 76c-74 0 -133.667 -25.667 -179 -77s-68 -118.666 -68 -201.999c0 -42.667 5.5 -80.334 16.5 -113.001s28.167 -62 51.5 -88
c45.333 -50 105 -75 179 -75zM1651 729c0 -106.667 -19 -206.501 -57 -299.501s-93.333 -175 -166 -246s-157.167 -125.833 -253.5 -164.5s-198.5 -58 -306.5 -58c-108.667 0 -210.667 19 -306 57s-180.333 93.333 -255 166c-72 70 -126.833 151.333 -164.5 244
s-56.5 193 -56.5 301c0 108.667 18.5 208.834 55.5 300.501s91.833 173.5 164.5 245.5s157 127 253 165s199 57 309 57c109.333 0 211.833 -18.833 307.5 -56.5s180.5 -92.5 254.5 -164.5c70.667 -70 125.167 -151.5 163.5 -244.5s57.5 -193.833 57.5 -302.5zM1165 1973
l-311 -351h-166l180 351h297z" />
    <glyph glyph-name="Ocircumflex" unicode="&#xd4;" horiz-adv-x="1735" 
d="M868 453c73.333 0 132.668 25.167 178.001 75.5s68 117.166 68 200.499c0 84.667 -22.333 152.334 -67 203.001s-104.334 76 -179.001 76c-74 0 -133.667 -25.667 -179 -77s-68 -118.666 -68 -201.999c0 -42.667 5.5 -80.334 16.5 -113.001s28.167 -62 51.5 -88
c45.333 -50 105 -75 179 -75zM1651 729c0 -106.667 -19 -206.501 -57 -299.501s-93.333 -175 -166 -246s-157.167 -125.833 -253.5 -164.5s-198.5 -58 -306.5 -58c-108.667 0 -210.667 19 -306 57s-180.333 93.333 -255 166c-72 70 -126.833 151.333 -164.5 244
s-56.5 193 -56.5 301c0 108.667 18.5 208.834 55.5 300.501s91.833 173.5 164.5 245.5s157 127 253 165s199 57 309 57c109.333 0 211.833 -18.833 307.5 -56.5s180.5 -92.5 254.5 -164.5c70.667 -70 125.167 -151.5 163.5 -244.5s57.5 -193.833 57.5 -302.5zM546.002 1622
l185 351h274l182 -351h-153l-166 170l-168 -170h-154z" />
    <glyph glyph-name="Otilde" unicode="&#xd5;" horiz-adv-x="1735" 
d="M868 453c73.333 0 132.668 25.167 178.001 75.5s68 117.166 68 200.499c0 84.667 -22.333 152.334 -67 203.001s-104.334 76 -179.001 76c-74 0 -133.667 -25.667 -179 -77s-68 -118.666 -68 -201.999c0 -42.667 5.5 -80.334 16.5 -113.001s28.167 -62 51.5 -88
c45.333 -50 105 -75 179 -75zM1651 729c0 -106.667 -19 -206.501 -57 -299.501s-93.333 -175 -166 -246s-157.167 -125.833 -253.5 -164.5s-198.5 -58 -306.5 -58c-108.667 0 -210.667 19 -306 57s-180.333 93.333 -255 166c-72 70 -126.833 151.333 -164.5 244
s-56.5 193 -56.5 301c0 108.667 18.5 208.834 55.5 300.501s91.833 173.5 164.5 245.5s157 127 253 165s199 57 309 57c109.333 0 211.833 -18.833 307.5 -56.5s180.5 -92.5 254.5 -164.5c70.667 -70 125.167 -151.5 163.5 -244.5s57.5 -193.833 57.5 -302.5zM1200 1948
c-20 -89.333 -47.668 -154.334 -83.001 -195.001s-80.666 -61 -135.999 -61l-38 3l-38 9l-92 27l-40 9l-28 3c-22 0 -40 -6 -54 -18s-26 -32 -36 -60h-119c18 84.667 44.667 146.834 80 186.501s80.333 59.5 135 59.5h25c8 -2 14.667 -3.5 20 -4.5s10.5 -1.83301 15.5 -2.5
s14.833 -3 29.5 -7l95 -27l26 -6l31 -2c22 0 40.167 7.16699 54.5 21.5s25.5 35.833 33.5 64.5h119z" />
    <glyph glyph-name="Odieresis" unicode="&#xd6;" horiz-adv-x="1735" 
d="M868 453c73.333 0 132.668 25.167 178.001 75.5s68 117.166 68 200.499c0 84.667 -22.333 152.334 -67 203.001s-104.334 76 -179.001 76c-74 0 -133.667 -25.667 -179 -77s-68 -118.666 -68 -201.999c0 -42.667 5.5 -80.334 16.5 -113.001s28.167 -62 51.5 -88
c45.333 -50 105 -75 179 -75zM1651 729c0 -106.667 -19 -206.501 -57 -299.501s-93.333 -175 -166 -246s-157.167 -125.833 -253.5 -164.5s-198.5 -58 -306.5 -58c-108.667 0 -210.667 19 -306 57s-180.333 93.333 -255 166c-72 70 -126.833 151.333 -164.5 244
s-56.5 193 -56.5 301c0 108.667 18.5 208.834 55.5 300.501s91.833 173.5 164.5 245.5s157 127 253 165s199 57 309 57c109.333 0 211.833 -18.833 307.5 -56.5s180.5 -92.5 254.5 -164.5c70.667 -70 125.167 -151.5 163.5 -244.5s57.5 -193.833 57.5 -302.5zM913.002 1807
c0 38 15 72.001 45 102.001s65 45 105 45s74.5 -14.333 103.5 -43s43.5 -63.334 43.5 -104.001c0 -44 -13.833 -80 -41.5 -108s-62.834 -42 -105.501 -42c-41.333 0 -76.666 14.5 -105.999 43.5s-44 64.5 -44 106.5zM524.002 1807c0 38 15 72.002 45 102.002
s64.667 45 104 45c41.333 0 76.333 -14.333 105 -43s43 -63.334 43 -104.001c0 -44 -13.833 -80 -41.5 -108s-63.167 -42 -106.5 -42c-41.333 0 -76.5 14.667 -105.5 44s-43.5 64.666 -43.5 105.999z" />
    <glyph glyph-name="multiply" unicode="&#xd7;" horiz-adv-x="1706" 
d="M874 805l426 426l195 -195l-426 -426l426 -426l-195 -194l-426 426l-425 -426l-195 194l426 426l-426 426l195 195z" />
    <glyph glyph-name="Oslash" unicode="&#xd8;" horiz-adv-x="1735" 
d="M772 455l49 -11.998l53 -3c77.333 0 140.833 27.167 190.5 81.5s74.5 124.833 74.5 211.5c0 35.333 -4 67.666 -12 96.999s-20.333 55.666 -37 78.999zM964 1007c-6 2 -15.5 4.16699 -28.5 6.5s-20.833 3.83301 -23.5 4.5l-50 4c-80 0 -144.333 -26.333 -193 -79
s-73 -122.667 -73 -210c0 -38.667 3.83301 -72 11.5 -100s19.5 -54.667 35.5 -80zM387 -89.998l-135 87.9971l100 143c-87.333 75.333 -153.5 162.333 -198.5 261s-67.5 208.334 -67.5 329.001c0 108.667 18.833 209.334 56.5 302.001s92.667 174.834 165 246.501
s156.333 125.834 252 162.501s198.5 55 308.5 55c70 0 135.667 -7.33301 197 -22s122.666 -37.334 183.999 -68.001l101 141l125 -88l-95 -139c88.667 -73.333 156 -160 202 -260s69 -210 69 -330c0 -107.333 -19.167 -207.666 -57.5 -300.999
s-93.666 -175.333 -165.999 -246s-156 -124.834 -251 -162.501s-197.833 -56.5 -308.5 -56.5c-67.333 0 -132 7.16699 -194 21.5s-123.667 36.5 -185 66.5z" />
    <glyph glyph-name="Ugrave" unicode="&#xd9;" horiz-adv-x="1602" 
d="M121 670v794.001h526v-798c0 -92 11.167 -155.667 33.5 -191s59.833 -53 112.5 -53c51.333 0 89 18 113 54c22.667 37.333 34 100.666 34 189.999v798h526v-794c0 -103.333 -6.83301 -189 -20.5 -257s-35.5 -124.333 -65.5 -169
c-58 -90.667 -138.167 -160.5 -240.5 -209.5s-217.833 -73.5 -346.5 -73.5c-130.667 0 -246.5 24.167 -347.5 72.5s-181.167 118.5 -240.5 210.5c-28.667 43.333 -50 99 -64 167c-6.66699 33.333 -11.667 70.833 -15 112.5s-5 90.5 -5 146.5zM504 1973h297l180 -351h-166z
" />
    <glyph glyph-name="Uacute" unicode="&#xda;" horiz-adv-x="1602" 
d="M121 670v794.001h526v-798c0 -92 11.167 -155.667 33.5 -191s59.833 -53 112.5 -53c51.333 0 89 18 113 54c22.667 37.333 34 100.666 34 189.999v798h526v-794c0 -103.333 -6.83301 -189 -20.5 -257s-35.5 -124.333 -65.5 -169
c-58 -90.667 -138.167 -160.5 -240.5 -209.5s-217.833 -73.5 -346.5 -73.5c-130.667 0 -246.5 24.167 -347.5 72.5s-181.167 118.5 -240.5 210.5c-28.667 43.333 -50 99 -64 167c-6.66699 33.333 -11.667 70.833 -15 112.5s-5 90.5 -5 146.5zM1098 1973l-311 -351h-166
l180 351h297z" />
    <glyph glyph-name="Ucircumflex" unicode="&#xdb;" horiz-adv-x="1602" 
d="M121 670v794.001h526v-798c0 -92 11.167 -155.667 33.5 -191s59.833 -53 112.5 -53c51.333 0 89 18 113 54c22.667 37.333 34 100.666 34 189.999v798h526v-794c0 -103.333 -6.83301 -189 -20.5 -257s-35.5 -124.333 -65.5 -169
c-58 -90.667 -138.167 -160.5 -240.5 -209.5s-217.833 -73.5 -346.5 -73.5c-130.667 0 -246.5 24.167 -347.5 72.5s-181.167 118.5 -240.5 210.5c-28.667 43.333 -50 99 -64 167c-6.66699 33.333 -11.667 70.833 -15 112.5s-5 90.5 -5 146.5zM479 1622l185 351h274l182 -351
h-153l-166 170l-168 -170h-154z" />
    <glyph glyph-name="Udieresis" unicode="&#xdc;" horiz-adv-x="1602" 
d="M121 670v794.001h526v-798c0 -92 11.167 -155.667 33.5 -191s59.833 -53 112.5 -53c51.333 0 89 18 113 54c22.667 37.333 34 100.666 34 189.999v798h526v-794c0 -103.333 -6.83301 -189 -20.5 -257s-35.5 -124.333 -65.5 -169
c-58 -90.667 -138.167 -160.5 -240.5 -209.5s-217.833 -73.5 -346.5 -73.5c-130.667 0 -246.5 24.167 -347.5 72.5s-181.167 118.5 -240.5 210.5c-28.667 43.333 -50 99 -64 167c-6.66699 33.333 -11.667 70.833 -15 112.5s-5 90.5 -5 146.5zM846 1807
c0 38 15 72.001 45 102.001s65 45 105 45s74.5 -14.333 103.5 -43s43.5 -63.334 43.5 -104.001c0 -44 -13.833 -80 -41.5 -108s-62.834 -42 -105.501 -42c-41.333 0 -76.666 14.5 -105.999 43.5s-44 64.5 -44 106.5zM457 1807c0 38 15 72.002 45 102.002s64.667 45 104 45
c41.333 0 76.333 -14.333 105 -43s43 -63.334 43 -104.001c0 -44 -13.833 -80 -41.5 -108s-63.167 -42 -106.5 -42c-41.333 0 -76.5 14.667 -105.5 44s-43.5 64.666 -43.5 105.999z" />
    <glyph glyph-name="Yacute" unicode="&#xdd;" horiz-adv-x="829" 
d="M147 0v1464h535v-1464h-535zM262 1807c0 40 15.667 75.499 47 106.499s67 46.5 107 46.5c44.667 0 81.834 -14.667 111.501 -44s44.5 -65.666 44.5 -108.999s-14.833 -80.166 -44.5 -110.499s-66.834 -45.5 -111.501 -45.5c-41.333 0 -77.333 15.667 -108 47
s-46 67.666 -46 108.999z" />
    <glyph glyph-name="Thorn" unicode="&#xde;" horiz-adv-x="1251" 
d="M527 -38c-38 0 -75.668 3.33203 -113.001 9.99902s-78 16.667 -122 30c-96 27.333 -192 68.333 -288 123l168 410c72.667 -50 139.667 -88.667 201 -116c59.333 -24 114.666 -36 165.999 -36c20 0 36.333 1.33301 49 4s24.667 8 36 16c20.667 14.667 31 33.334 31 56.001
c0 40 -51.667 71 -155 93l-78 17c-108.667 26 -192.167 73.167 -250.5 141.5s-87.5 153.166 -87.5 254.499c0 157.333 56.333 285.333 169 384s260.334 148 443.001 148c83.333 0 166 -11 248 -33c41.333 -11.333 81.833 -25 121.5 -41s81.167 -35.667 124.5 -59l-160 -383
c-49.333 36 -99.666 64.167 -150.999 84.5s-101.333 30.5 -150 30.5c-36 0 -64.167 -6.16699 -84.5 -18.5s-30.5 -29.5 -30.5 -51.5c0 -40.667 73 -77 219 -109l54 -12c100 -22 179.167 -68.167 237.5 -138.5s87.5 -155.166 87.5 -254.499
c0 -162 -58.667 -294.333 -176 -397c-54 -47.333 -111.333 -83.666 -172 -108.999c-67.333 -28 -138.666 -42 -213.999 -42v-48h18c74 0 130.667 -16.5 170 -49.5s59 -80.5 59 -142.5c0 -65.333 -22.167 -116.5 -66.5 -153.5s-106.833 -55.5 -187.5 -55.5
c-43.333 0 -89.166 3.66699 -137.499 11s-99.166 18.666 -152.499 33.999v141c15.333 -4 36.166 -9 62.499 -15s58.666 -12.167 96.999 -18.5s72.5 -9.5 102.5 -9.5c26.667 0 46.667 5.66699 60 17s20 28.333 20 51c0 20 -8.83301 34.833 -26.5 44.5
s-47.834 14.5 -90.501 14.5l-25 -1l-26 -1v179z" />
    <glyph glyph-name="germandbls" unicode="&#xdf;" horiz-adv-x="1432" 
d="M117 0l-0.00195312 1133c0 151.333 49.167 265.5 147.5 342.5s244.166 115.5 437.499 115.5c182.667 0 323.334 -35.333 422.001 -106s148 -171 148 -301c0 -64 -15.667 -119.5 -47 -166.5s-78 -85.167 -140 -114.5c96 -26.667 169.5 -75.334 220.5 -146.001
s76.5 -157.667 76.5 -261c0 -164.667 -52.167 -288.5 -156.5 -371.5s-260.166 -124.5 -467.499 -124.5h-53l-7 293h11c51.333 0 90 16.333 116 49c24.667 34 37 86 37 156c0 45.333 -2.66699 82.5 -8 111.5s-14.333 52.167 -27 69.5c-22.667 31.333 -64.667 50 -126 56v291
l13 -2h19c38.667 0 67.834 8.16699 87.501 24.5s29.5 40.166 29.5 71.499c0 32 -9.66699 57.5 -29 76.5s-45.333 28.5 -78 28.5c-44.667 0 -77 -16 -97 -48c-18.667 -33.333 -28 -90.333 -28 -171v-1006h-501z" />
    <glyph glyph-name="agrave" unicode="&#xe0;" horiz-adv-x="1389" 
d="M549 520c0 -44 11.999 -79.501 35.999 -106.501s55 -40.5 93 -40.5c38.667 0 69.834 13.333 93.501 40s35.5 62.334 35.5 107.001s-11.833 80.834 -35.5 108.501s-54.834 41.5 -93.501 41.5c-37.333 0 -68.166 -13.833 -92.499 -41.5s-36.5 -63.834 -36.5 -108.501z
M822.999 -0.000976562l-0.000976562 156c-50 -66 -102.333 -115 -157 -147s-115 -48 -181 -48c-119.333 0 -218.666 51.167 -297.999 153.5s-119 233.5 -119 393.5c0 168.667 38.5 304 115.5 406s177.5 153 301.5 153c64 0 122 -13.667 174 -41s100.667 -70.333 146 -129
v137h481v-1034h-463zM417.998 1522h297l180 -351h-166z" />
    <glyph glyph-name="aacute" unicode="&#xe1;" horiz-adv-x="1389" 
d="M549 520c0 -44 11.999 -79.501 35.999 -106.501s55 -40.5 93 -40.5c38.667 0 69.834 13.333 93.501 40s35.5 62.334 35.5 107.001s-11.833 80.834 -35.5 108.501s-54.834 41.5 -93.501 41.5c-37.333 0 -68.166 -13.833 -92.499 -41.5s-36.5 -63.834 -36.5 -108.501z
M822.999 -0.000976562l-0.000976562 156c-50 -66 -102.333 -115 -157 -147s-115 -48 -181 -48c-119.333 0 -218.666 51.167 -297.999 153.5s-119 233.5 -119 393.5c0 168.667 38.5 304 115.5 406s177.5 153 301.5 153c64 0 122 -13.667 174 -41s100.667 -70.333 146 -129
v137h481v-1034h-463zM1012 1522l-311 -351h-166l180 351h297z" />
    <glyph glyph-name="acircumflex" unicode="&#xe2;" horiz-adv-x="1389" 
d="M549 520c0 -44 11.999 -79.501 35.999 -106.501s55 -40.5 93 -40.5c38.667 0 69.834 13.333 93.501 40s35.5 62.334 35.5 107.001s-11.833 80.834 -35.5 108.501s-54.834 41.5 -93.501 41.5c-37.333 0 -68.166 -13.833 -92.499 -41.5s-36.5 -63.834 -36.5 -108.501z
M822.999 -0.000976562l-0.000976562 156c-50 -66 -102.333 -115 -157 -147s-115 -48 -181 -48c-119.333 0 -218.666 51.167 -297.999 153.5s-119 233.5 -119 393.5c0 168.667 38.5 304 115.5 406s177.5 153 301.5 153c64 0 122 -13.667 174 -41s100.667 -70.333 146 -129
v137h481v-1034h-463zM392.998 1171l185 351h274l182 -351h-153l-166 170l-168 -170h-154z" />
    <glyph glyph-name="atilde" unicode="&#xe3;" horiz-adv-x="1389" 
d="M549 520c0 -44 11.999 -79.501 35.999 -106.501s55 -40.5 93 -40.5c38.667 0 69.834 13.333 93.501 40s35.5 62.334 35.5 107.001s-11.833 80.834 -35.5 108.501s-54.834 41.5 -93.501 41.5c-37.333 0 -68.166 -13.833 -92.499 -41.5s-36.5 -63.834 -36.5 -108.501z
M822.999 -0.000976562l-0.000976562 156c-50 -66 -102.333 -115 -157 -147s-115 -48 -181 -48c-119.333 0 -218.666 51.167 -297.999 153.5s-119 233.5 -119 393.5c0 168.667 38.5 304 115.5 406s177.5 153 301.5 153c64 0 122 -13.667 174 -41s100.667 -70.333 146 -129
v137h481v-1034h-463zM1047 1497c-20 -89.333 -47.668 -154.334 -83.001 -195.001s-80.666 -61 -135.999 -61l-38 3l-38 9l-92 27l-40 9l-28 3c-22 0 -40 -6 -54 -18s-26 -32 -36 -60h-119c18 84.667 44.667 146.834 80 186.501s80.333 59.5 135 59.5h25
c8 -2 14.667 -3.5 20 -4.5s10.5 -1.83301 15.5 -2.5s14.833 -3 29.5 -7l95 -27l26 -6l31 -2c22 0 40.167 7.16699 54.5 21.5s25.5 35.833 33.5 64.5h119z" />
    <glyph glyph-name="adieresis" unicode="&#xe4;" horiz-adv-x="1389" 
d="M549 520c0 -44 11.999 -79.501 35.999 -106.501s55 -40.5 93 -40.5c38.667 0 69.834 13.333 93.501 40s35.5 62.334 35.5 107.001s-11.833 80.834 -35.5 108.501s-54.834 41.5 -93.501 41.5c-37.333 0 -68.166 -13.833 -92.499 -41.5s-36.5 -63.834 -36.5 -108.501z
M822.999 -0.000976562l-0.000976562 156c-50 -66 -102.333 -115 -157 -147s-115 -48 -181 -48c-119.333 0 -218.666 51.167 -297.999 153.5s-119 233.5 -119 393.5c0 168.667 38.5 304 115.5 406s177.5 153 301.5 153c64 0 122 -13.667 174 -41s100.667 -70.333 146 -129
v137h481v-1034h-463zM759.998 1356c0 38 15 72.001 45 102.001s65 45 105 45s74.5 -14.333 103.5 -43s43.5 -63.334 43.5 -104.001c0 -44 -13.833 -80 -41.5 -108s-62.834 -42 -105.501 -42c-41.333 0 -76.666 14.5 -105.999 43.5s-44 64.5 -44 106.5zM370.998 1356
c0 38 15 72.002 45 102.002s64.667 45 104 45c41.333 0 76.333 -14.333 105 -43s43 -63.334 43 -104.001c0 -44 -13.833 -80 -41.5 -108s-63.167 -42 -106.5 -42c-41.333 0 -76.5 14.667 -105.5 44s-43.5 64.666 -43.5 105.999z" />
    <glyph glyph-name="aring" unicode="&#xe5;" horiz-adv-x="1389" 
d="M610 1368c0 -30 10.334 -55.667 31.001 -77c22 -20.667 47.333 -31 76 -31c30 0 55.5 10.5 76.5 31.5s31.5 46.5 31.5 76.5s-10.333 55.333 -31 76s-46.334 31 -77.001 31c-30 0 -55.333 -10.333 -76 -31s-31 -46 -31 -76zM457.001 1366
c0 71.333 25.167 132.5 75.5 183.5s111.833 76.5 184.5 76.5c72 0 133.667 -25.167 185 -75.5s77 -111.833 77 -184.5c0 -72 -25.333 -133.333 -76 -184s-112.667 -76 -186 -76c-71.333 0 -132.5 25 -183.5 75s-76.5 111.667 -76.5 185zM549.001 520
c0 -44 11.999 -79.501 35.999 -106.501s55 -40.5 93 -40.5c38.667 0 69.834 13.333 93.501 40s35.5 62.334 35.5 107.001s-11.833 80.834 -35.5 108.501s-54.834 41.5 -93.501 41.5c-37.333 0 -68.166 -13.833 -92.499 -41.5s-36.5 -63.834 -36.5 -108.501z
M823 -0.000976562l-0.000976562 156c-50 -66 -102.333 -115 -157 -147s-115 -48 -181 -48c-119.333 0 -218.666 51.167 -297.999 153.5s-119 233.5 -119 393.5c0 168.667 38.5 304 115.5 406s177.5 153 301.5 153c64 0 122 -13.667 174 -41s100.667 -70.333 146 -129v137
h481v-1034h-463z" />
    <glyph glyph-name="ae" unicode="&#xe6;" horiz-adv-x="2032" 
d="M1282 656l225 0.000976562c0 19.333 -2.66699 36.166 -8 50.499s-13 26.833 -23 37.5c-18 20 -45 30 -81 30c-31.333 0 -57 -10 -77 -30c-18 -20 -30 -49.333 -36 -88zM678 244.001c44.667 0 80.334 8.66699 107.001 26c26.667 18.667 40 42 40 70s-13.5 51.333 -40.5 70
s-62.5 28 -106.5 28c-44.667 0 -80.834 -9 -108.501 -27s-41.5 -41.667 -41.5 -71c0 -28 13.667 -51.333 41 -70c28.667 -17.333 65 -26 109 -26zM1024 942.001c51.333 41.333 107.335 72.5 168.002 93.5s124.667 31.5 192 31.5c182 0 328.667 -55.167 440 -165.5
s167 -256.5 167 -438.5v-31h-713v-16c0 -50 9 -88.667 27 -116c18 -25.333 45 -38 81 -38c26.667 0 48.5 6.16699 65.5 18.5s31.5 32.833 43.5 61.5l465 -31c-38.667 -110 -108.5 -195.5 -209.5 -256.5s-223.167 -91.5 -366.5 -91.5c-69.333 0 -134.5 9 -195.5 27
s-119.167 45.333 -174.5 82c-70 -36 -143.333 -63 -220 -81c-39.333 -9.33301 -78 -16.333 -116 -21s-78.333 -7 -121 -7c-152 0 -272.333 32.5 -361 97.5s-133 152.833 -133 263.5c0 111.333 41.333 201.833 124 271.5s191.667 104.5 327 104.5
c42 0 89.167 -4.83301 141.5 -14.5s106.166 -24.5 161.499 -44.5v14c0 55.333 -23.333 97.5 -70 126.5s-113.334 43.5 -200.001 43.5c-66 0 -131.333 -7.5 -196 -22.5s-144.667 -42.167 -240 -81.5v264c74 26 148.5 46.167 223.5 60.5s149.167 21.5 222.5 21.5
c88.667 0 171.667 -10.167 249 -30.5s150 -51.833 218 -94.5z" />
    <glyph glyph-name="ccedilla" unicode="&#xe7;" horiz-adv-x="950" 
d="M455 -22c-12.667 2.66699 -23.166 5.33301 -31.499 8s-21.166 7.33398 -38.499 14.001c-66 25.333 -124 63 -174 113c-52 52 -92.333 112.167 -121 180.5s-43 140.5 -43 216.5c0 54.667 7 106.667 21 156s34.333 95.666 61 138.999c51.333 82.667 117.333 147 198 193
s171 69 271 69c23.333 0 45.833 -1 67.5 -3s45.167 -5.66699 70.5 -11c48.667 -9.33301 100.334 -23.666 155.001 -42.999v-418c-25.333 22.667 -52.333 40 -81 52s-58.334 18 -89.001 18c-50.667 0 -91 -13.333 -121 -40s-45 -62.667 -45 -108
c0 -42.667 14.833 -77.5 44.5 -104.5s67.5 -40.5 113.5 -40.5c29.333 0 59 6.5 89 19.5s59.667 32.167 89 57.5v-411c-49.333 -24 -98.833 -42.333 -148.5 -55s-97.834 -19 -144.501 -19h-20v-45h18c74 0 130.667 -16.5 170 -49.5s59 -80.5 59 -142.5
c0 -65.333 -22.167 -116.5 -66.5 -153.5s-106.833 -55.5 -187.5 -55.5c-43.333 0 -89.166 3.66699 -137.499 11s-99.166 18.666 -152.499 33.999v141c15.333 -4 36.166 -9 62.499 -15s58.666 -12.167 96.999 -18.5s72.5 -9.5 102.5 -9.5c26.667 0 46.667 5.66699 60 17
s20 28.333 20 51c0 20 -8.83301 34.833 -26.5 44.5s-47.834 14.5 -90.501 14.5l-25 -1l-26 -1v195z" />
    <glyph glyph-name="egrave" unicode="&#xe8;" horiz-adv-x="1321" 
d="M1272 435l-713 -0.999023v-16c0 -52 9.33301 -91.333 28 -118c19.333 -25.333 48.333 -38 87 -38c23.333 0 43.333 6.66699 60 20s30.667 33.333 42 60l465 -31c-40 -111.333 -110 -197.5 -210 -258.5s-221.667 -91.5 -365 -91.5c-80.667 0 -155.667 12.167 -225 36.5
s-131.666 59.833 -186.999 106.5c-61.333 53.333 -108.833 115.5 -142.5 186.5s-50.5 145.5 -50.5 223.5c0 78.667 17 153.667 51 225s81.333 133 142 185c54 46 116 81.333 186 106s145.333 37 226 37c110 0 209.167 -22.167 297.5 -66.5s161.833 -108.833 220.5 -193.5
c29.333 -42 51.666 -89.833 66.999 -143.5s23 -110.834 23 -171.501l-1 -36zM563 660.001l227 -1c0 19.333 -2.66699 36.5 -8 51.5s-13 27.833 -23 38.5c-18 19.333 -45 29 -81 29c-32 0 -57.667 -10 -77 -30s-32 -49.333 -38 -88zM389 1522h297l180 -351h-166z" />
    <glyph glyph-name="eacute" unicode="&#xe9;" horiz-adv-x="1321" 
d="M1272 435l-713 -0.999023v-16c0 -52 9.33301 -91.333 28 -118c19.333 -25.333 48.333 -38 87 -38c23.333 0 43.333 6.66699 60 20s30.667 33.333 42 60l465 -31c-40 -111.333 -110 -197.5 -210 -258.5s-221.667 -91.5 -365 -91.5c-80.667 0 -155.667 12.167 -225 36.5
s-131.666 59.833 -186.999 106.5c-61.333 53.333 -108.833 115.5 -142.5 186.5s-50.5 145.5 -50.5 223.5c0 78.667 17 153.667 51 225s81.333 133 142 185c54 46 116 81.333 186 106s145.333 37 226 37c110 0 209.167 -22.167 297.5 -66.5s161.833 -108.833 220.5 -193.5
c29.333 -42 51.666 -89.833 66.999 -143.5s23 -110.834 23 -171.501l-1 -36zM563 660.001l227 -1c0 19.333 -2.66699 36.5 -8 51.5s-13 27.833 -23 38.5c-18 19.333 -45 29 -81 29c-32 0 -57.667 -10 -77 -30s-32 -49.333 -38 -88zM983 1522l-311 -351h-166l180 351h297z
" />
    <glyph glyph-name="ecircumflex" unicode="&#xea;" horiz-adv-x="1321" 
d="M1272 435l-713 -0.999023v-16c0 -52 9.33301 -91.333 28 -118c19.333 -25.333 48.333 -38 87 -38c23.333 0 43.333 6.66699 60 20s30.667 33.333 42 60l465 -31c-40 -111.333 -110 -197.5 -210 -258.5s-221.667 -91.5 -365 -91.5c-80.667 0 -155.667 12.167 -225 36.5
s-131.666 59.833 -186.999 106.5c-61.333 53.333 -108.833 115.5 -142.5 186.5s-50.5 145.5 -50.5 223.5c0 78.667 17 153.667 51 225s81.333 133 142 185c54 46 116 81.333 186 106s145.333 37 226 37c110 0 209.167 -22.167 297.5 -66.5s161.833 -108.833 220.5 -193.5
c29.333 -42 51.666 -89.833 66.999 -143.5s23 -110.834 23 -171.501l-1 -36zM563 660.001l227 -1c0 19.333 -2.66699 36.5 -8 51.5s-13 27.833 -23 38.5c-18 19.333 -45 29 -81 29c-32 0 -57.667 -10 -77 -30s-32 -49.333 -38 -88zM364 1171l185 351h274l182 -351h-153
l-166 170l-168 -170h-154z" />
    <glyph glyph-name="edieresis" unicode="&#xeb;" horiz-adv-x="1321" 
d="M1272 435l-713 -0.999023v-16c0 -52 9.33301 -91.333 28 -118c19.333 -25.333 48.333 -38 87 -38c23.333 0 43.333 6.66699 60 20s30.667 33.333 42 60l465 -31c-40 -111.333 -110 -197.5 -210 -258.5s-221.667 -91.5 -365 -91.5c-80.667 0 -155.667 12.167 -225 36.5
s-131.666 59.833 -186.999 106.5c-61.333 53.333 -108.833 115.5 -142.5 186.5s-50.5 145.5 -50.5 223.5c0 78.667 17 153.667 51 225s81.333 133 142 185c54 46 116 81.333 186 106s145.333 37 226 37c110 0 209.167 -22.167 297.5 -66.5s161.833 -108.833 220.5 -193.5
c29.333 -42 51.666 -89.833 66.999 -143.5s23 -110.834 23 -171.501l-1 -36zM563 660.001l227 -1c0 19.333 -2.66699 36.5 -8 51.5s-13 27.833 -23 38.5c-18 19.333 -45 29 -81 29c-32 0 -57.667 -10 -77 -30s-32 -49.333 -38 -88zM731 1356c0 38 15 72.001 45 102.001
s65 45 105 45s74.5 -14.333 103.5 -43s43.5 -63.334 43.5 -104.001c0 -44 -13.833 -80 -41.5 -108s-62.834 -42 -105.501 -42c-41.333 0 -76.666 14.5 -105.999 43.5s-44 64.5 -44 106.5zM342 1356c0 38 15 72.002 45 102.002s64.667 45 104 45
c41.333 0 76.333 -14.333 105 -43s43 -63.334 43 -104.001c0 -44 -13.833 -80 -41.5 -108s-63.167 -42 -106.5 -42c-41.333 0 -76.5 14.667 -105.5 44s-43.5 64.666 -43.5 105.999z" />
    <glyph glyph-name="igrave" unicode="&#xec;" horiz-adv-x="739" 
d="M119 0v1034h502v-1034h-502zM74 1522h297l180 -351h-166z" />
    <glyph glyph-name="iacute" unicode="&#xed;" horiz-adv-x="739" 
d="M119 0v1034h502v-1034h-502zM668 1522l-311 -351h-166l180 351h297z" />
    <glyph glyph-name="icircumflex" unicode="&#xee;" horiz-adv-x="739" 
d="M119 0v1034h502v-1034h-502zM49 1171l185 351h274l182 -351h-153l-166 170l-168 -170h-154z" />
    <glyph glyph-name="idieresis" unicode="&#xef;" horiz-adv-x="739" 
d="M119 0v1034h502v-1034h-502zM416 1356c0 38 15 72.001 45 102.001s65 45 105 45s74.5 -14.333 103.5 -43s43.5 -63.334 43.5 -104.001c0 -44 -13.833 -80 -41.5 -108s-62.834 -42 -105.501 -42c-41.333 0 -76.666 14.5 -105.999 43.5s-44 64.5 -44 106.5zM27 1356
c0 38 15 72.002 45 102.002s64.667 45 104 45c41.333 0 76.333 -14.333 105 -43s43 -63.334 43 -104.001c0 -44 -13.833 -80 -41.5 -108s-63.167 -42 -106.5 -42c-41.333 0 -76.5 14.667 -105.5 44s-43.5 64.666 -43.5 105.999z" />
    <glyph glyph-name="eth" unicode="&#xf0;" horiz-adv-x="1389" 
d="M565 541c0 -40.667 11.167 -72.667 33.5 -96s52.833 -35 91.5 -35c38 0 68.667 12 92 36s35 55.667 35 95c0 40 -11.667 72.167 -35 96.5s-54 36.5 -92 36.5c-36.667 0 -66.667 -12.333 -90 -37s-35 -56.667 -35 -96zM805 94l-0.00195312 90.001
c-46 -51.333 -95.333 -89.333 -148 -114c-25.333 -11.333 -52.666 -20.333 -81.999 -27s-59.333 -10 -90 -10c-119.333 0 -218.666 45.667 -297.999 137s-119 208 -119 350c0 164.667 38 297 114 397s177 150 303 150c64.667 0 123 -13.333 175 -40
s100.333 -68.667 145 -126v133h481v-884c0 -90.667 -4 -158.5 -12 -203.5s-21 -86.5 -39 -124.5c-42.667 -88.667 -118 -156 -226 -202s-245.667 -69 -413 -69c-94.667 0 -181.667 8.16699 -261 24.5s-152.666 40.5 -219.999 72.5l108 334c28 -18 55.667 -33.5 83 -46.5
s55.666 -24.167 84.999 -33.5c55.333 -18 110 -27 164 -27c82 0 144.167 18.667 186.5 56s63.5 91.666 63.5 162.999zM378.998 1507l130.999 0.000976562c4 -46.667 20.833 -81.167 50.5 -103.5s74.167 -33.5 133.5 -33.5s104.5 11.333 135.5 34s46.5 57 46.5 103h131
c0 -50 -8 -94.833 -24 -134.5s-37.333 -72.5 -64 -98.5c-50.667 -49.333 -125.667 -74 -225 -74c-100 0 -176 25 -228 75c-27.333 26.667 -48.666 59.167 -63.999 97.5s-23 83.166 -23 134.499z" />
    <glyph glyph-name="ntilde" unicode="&#xf1;" horiz-adv-x="1376" 
d="M109 0v1034h487v-143c43.333 59.333 91.333 103.5 144 132.5s112 43.5 178 43.5c110 0 197.167 -33.333 261.5 -100s96.5 -157.667 96.5 -273v-694h-502v522c0 51.333 -5.16699 86.666 -15.5 105.999s-29.166 29 -56.499 29c-28.667 0 -50.834 -11.333 -66.501 -34
s-23.5 -56.334 -23.5 -101.001v-522h-503zM1020 1497c-20 -89.333 -47.668 -154.334 -83.001 -195.001s-80.666 -61 -135.999 -61l-38 3l-38 9l-92 27l-40 9l-28 3c-22 0 -40 -6 -54 -18s-26 -32 -36 -60h-119c18 84.667 44.667 146.834 80 186.501s80.333 59.5 135 59.5h25
c8 -2 14.667 -3.5 20 -4.5s10.5 -1.83301 15.5 -2.5s14.833 -3 29.5 -7l95 -27l26 -6l31 -2c22 0 40.167 7.16699 54.5 21.5s25.5 35.833 33.5 64.5h119z" />
    <glyph glyph-name="ograve" unicode="&#xf2;" horiz-adv-x="1331" 
d="M666 373c35.333 0 64.501 13.167 87.501 39.5s34.5 60.166 34.5 101.499c0 42.667 -11.167 76.834 -33.5 102.501s-51.833 38.5 -88.5 38.5s-66.334 -12.833 -89.001 -38.5s-34 -59.834 -34 -102.501c0 -41.333 11 -75.166 33 -101.499s52 -39.5 90 -39.5zM1270 514
c0 -39.333 -4 -77.3311 -12 -113.998s-20.667 -73 -38 -109c-33.333 -70.667 -81 -133 -143 -187c-53.333 -45.333 -115.333 -80.5 -186 -105.5s-145.667 -37.5 -225 -37.5c-80 0 -155 12 -225 36s-132.333 59.667 -187 107c-60.667 51.333 -108 113.166 -142 185.499
s-51 147.166 -51 224.499c0 78.667 17 153.667 51 225s81.333 133 142 185c54 46 116 81.333 186 106s145.333 37 226 37s155.667 -12.167 225 -36.5s132 -59.833 188 -106.5c60.667 -52.667 107.667 -114.667 141 -186s50 -146 50 -224zM369.001 1522h297l180 -351h-166z
" />
    <glyph glyph-name="oacute" unicode="&#xf3;" horiz-adv-x="1331" 
d="M666 373c35.333 0 64.501 13.167 87.501 39.5s34.5 60.166 34.5 101.499c0 42.667 -11.167 76.834 -33.5 102.501s-51.833 38.5 -88.5 38.5s-66.334 -12.833 -89.001 -38.5s-34 -59.834 -34 -102.501c0 -41.333 11 -75.166 33 -101.499s52 -39.5 90 -39.5zM1270 514
c0 -39.333 -4 -77.3311 -12 -113.998s-20.667 -73 -38 -109c-33.333 -70.667 -81 -133 -143 -187c-53.333 -45.333 -115.333 -80.5 -186 -105.5s-145.667 -37.5 -225 -37.5c-80 0 -155 12 -225 36s-132.333 59.667 -187 107c-60.667 51.333 -108 113.166 -142 185.499
s-51 147.166 -51 224.499c0 78.667 17 153.667 51 225s81.333 133 142 185c54 46 116 81.333 186 106s145.333 37 226 37s155.667 -12.167 225 -36.5s132 -59.833 188 -106.5c60.667 -52.667 107.667 -114.667 141 -186s50 -146 50 -224zM963.001 1522l-311 -351h-166
l180 351h297z" />
    <glyph glyph-name="ocircumflex" unicode="&#xf4;" horiz-adv-x="1331" 
d="M666 373c35.333 0 64.501 13.167 87.501 39.5s34.5 60.166 34.5 101.499c0 42.667 -11.167 76.834 -33.5 102.501s-51.833 38.5 -88.5 38.5s-66.334 -12.833 -89.001 -38.5s-34 -59.834 -34 -102.501c0 -41.333 11 -75.166 33 -101.499s52 -39.5 90 -39.5zM1270 514
c0 -39.333 -4 -77.3311 -12 -113.998s-20.667 -73 -38 -109c-33.333 -70.667 -81 -133 -143 -187c-53.333 -45.333 -115.333 -80.5 -186 -105.5s-145.667 -37.5 -225 -37.5c-80 0 -155 12 -225 36s-132.333 59.667 -187 107c-60.667 51.333 -108 113.166 -142 185.499
s-51 147.166 -51 224.499c0 78.667 17 153.667 51 225s81.333 133 142 185c54 46 116 81.333 186 106s145.333 37 226 37s155.667 -12.167 225 -36.5s132 -59.833 188 -106.5c60.667 -52.667 107.667 -114.667 141 -186s50 -146 50 -224zM344.001 1171l185 351h274l182 -351
h-153l-166 170l-168 -170h-154z" />
    <glyph glyph-name="otilde" unicode="&#xf5;" horiz-adv-x="1331" 
d="M666 373c35.333 0 64.501 13.167 87.501 39.5s34.5 60.166 34.5 101.499c0 42.667 -11.167 76.834 -33.5 102.501s-51.833 38.5 -88.5 38.5s-66.334 -12.833 -89.001 -38.5s-34 -59.834 -34 -102.501c0 -41.333 11 -75.166 33 -101.499s52 -39.5 90 -39.5zM1270 514
c0 -39.333 -4 -77.3311 -12 -113.998s-20.667 -73 -38 -109c-33.333 -70.667 -81 -133 -143 -187c-53.333 -45.333 -115.333 -80.5 -186 -105.5s-145.667 -37.5 -225 -37.5c-80 0 -155 12 -225 36s-132.333 59.667 -187 107c-60.667 51.333 -108 113.166 -142 185.499
s-51 147.166 -51 224.499c0 78.667 17 153.667 51 225s81.333 133 142 185c54 46 116 81.333 186 106s145.333 37 226 37s155.667 -12.167 225 -36.5s132 -59.833 188 -106.5c60.667 -52.667 107.667 -114.667 141 -186s50 -146 50 -224zM998.001 1497
c-20 -89.333 -47.668 -154.334 -83.001 -195.001s-80.666 -61 -135.999 -61l-38 3l-38 9l-92 27l-40 9l-28 3c-22 0 -40 -6 -54 -18s-26 -32 -36 -60h-119c18 84.667 44.667 146.834 80 186.501s80.333 59.5 135 59.5h25c8 -2 14.667 -3.5 20 -4.5s10.5 -1.83301 15.5 -2.5
s14.833 -3 29.5 -7l95 -27l26 -6l31 -2c22 0 40.167 7.16699 54.5 21.5s25.5 35.833 33.5 64.5h119z" />
    <glyph glyph-name="odieresis" unicode="&#xf6;" horiz-adv-x="1331" 
d="M666 373c35.333 0 64.501 13.167 87.501 39.5s34.5 60.166 34.5 101.499c0 42.667 -11.167 76.834 -33.5 102.501s-51.833 38.5 -88.5 38.5s-66.334 -12.833 -89.001 -38.5s-34 -59.834 -34 -102.501c0 -41.333 11 -75.166 33 -101.499s52 -39.5 90 -39.5zM1270 514
c0 -39.333 -4 -77.3311 -12 -113.998s-20.667 -73 -38 -109c-33.333 -70.667 -81 -133 -143 -187c-53.333 -45.333 -115.333 -80.5 -186 -105.5s-145.667 -37.5 -225 -37.5c-80 0 -155 12 -225 36s-132.333 59.667 -187 107c-60.667 51.333 -108 113.166 -142 185.499
s-51 147.166 -51 224.499c0 78.667 17 153.667 51 225s81.333 133 142 185c54 46 116 81.333 186 106s145.333 37 226 37s155.667 -12.167 225 -36.5s132 -59.833 188 -106.5c60.667 -52.667 107.667 -114.667 141 -186s50 -146 50 -224zM711.001 1356
c0 38 15 72.001 45 102.001s65 45 105 45s74.5 -14.333 103.5 -43s43.5 -63.334 43.5 -104.001c0 -44 -13.833 -80 -41.5 -108s-62.834 -42 -105.501 -42c-41.333 0 -76.666 14.5 -105.999 43.5s-44 64.5 -44 106.5zM322.001 1356c0 38 15 72.002 45 102.002
s64.667 45 104 45c41.333 0 76.333 -14.333 105 -43s43 -63.334 43 -104.001c0 -44 -13.833 -80 -41.5 -108s-63.167 -42 -106.5 -42c-41.333 0 -76.5 14.667 -105.5 44s-43.5 64.666 -43.5 105.999z" />
    <glyph glyph-name="divide" unicode="&#xf7;" horiz-adv-x="1706" 
d="M854 371c48 0 90.333 -17.999 127 -53.999s55 -79 55 -129c0 -48 -18 -90.333 -54 -127s-79.333 -55 -130 -55s-93.667 17.667 -129 53s-53 78.333 -53 129c0 51.333 18 94.666 54 129.999s79.333 53 130 53zM1452 748.001v-273h-1198v273h1198zM854 1217
c48.667 0 91.167 -18.167 127.5 -54.5s54.5 -79.833 54.5 -130.5c0 -48 -18 -90.333 -54 -127s-79.333 -55 -130 -55s-93.667 17.667 -129 53s-53 78.333 -53 129c0 50 18 93.333 54 130s79.333 55 130 55z" />
    <glyph glyph-name="oslash" unicode="&#xf8;" horiz-adv-x="1331" 
d="M623 338l6 -0.999023l45 -3c56 0 101.667 16.167 137 48.5s53 75.5 53 129.5c0 11.333 -0.5 22.166 -1.5 32.499s-4.16699 21.833 -9.5 34.5c-6 19.333 -17.333 37.333 -34 54zM710 688.001l-20 3.00098l-33 1c-54.667 0 -99.667 -16.833 -135 -50.5
s-53 -76.834 -53 -129.501c0 -24 3.33301 -45.333 10 -64s17.667 -37.667 33 -57zM346 -83.998l-112.995 64l62 94c-76.667 56.667 -134.834 122.5 -174.501 197.5s-59.5 155.833 -59.5 242.5c0 80 16.667 155 50 225s81 131.667 143 185c54 46 116 81.333 186 106
s145.333 37 226 37c45.333 0 89.333 -4 132 -12s84.667 -20.333 126 -37l63 94l119 -65l-62 -95c74 -54 130.167 -118.5 168.5 -193.5s57.5 -156.5 57.5 -244.5c0 -78.667 -16.333 -153 -49 -223s-80 -131.667 -142 -185c-56 -46.667 -119.5 -82.5 -190.5 -107.5
s-145.167 -37.5 -222.5 -37.5c-20.667 0 -41.334 1 -62.001 3s-42.334 5.16699 -65.001 9.5s-43.834 9.5 -63.501 15.5s-40.834 13.667 -63.501 23z" />
    <glyph glyph-name="ugrave" unicode="&#xf9;" horiz-adv-x="1339" 
d="M94 1034h493.998v-506c0 -73.333 5.66699 -120.333 17 -141c12.667 -20.667 34.334 -31 65.001 -31c29.333 0 50 10 62 30s18 67.333 18 142v506h493v-557c0 -177.333 -46 -307.666 -138 -390.999s-237 -125 -435 -125c-199.333 0 -345.166 41.167 -437.499 123.5
s-138.5 213.166 -138.5 392.499v557zM372.998 1522h297l180 -351h-166z" />
    <glyph glyph-name="uacute" unicode="&#xfa;" horiz-adv-x="1339" 
d="M94 1034h493.998v-506c0 -73.333 5.66699 -120.333 17 -141c12.667 -20.667 34.334 -31 65.001 -31c29.333 0 50 10 62 30s18 67.333 18 142v506h493v-557c0 -177.333 -46 -307.666 -138 -390.999s-237 -125 -435 -125c-199.333 0 -345.166 41.167 -437.499 123.5
s-138.5 213.166 -138.5 392.499v557zM966.998 1522l-311 -351h-166l180 351h297z" />
    <glyph glyph-name="ucircumflex" unicode="&#xfb;" horiz-adv-x="1339" 
d="M94 1034h493.998v-506c0 -73.333 5.66699 -120.333 17 -141c12.667 -20.667 34.334 -31 65.001 -31c29.333 0 50 10 62 30s18 67.333 18 142v506h493v-557c0 -177.333 -46 -307.666 -138 -390.999s-237 -125 -435 -125c-199.333 0 -345.166 41.167 -437.499 123.5
s-138.5 213.166 -138.5 392.499v557zM347.998 1171l185 351h274l182 -351h-153l-166 170l-168 -170h-154z" />
    <glyph glyph-name="udieresis" unicode="&#xfc;" horiz-adv-x="1339" 
d="M94 1034h493.998v-506c0 -73.333 5.66699 -120.333 17 -141c12.667 -20.667 34.334 -31 65.001 -31c29.333 0 50 10 62 30s18 67.333 18 142v506h493v-557c0 -177.333 -46 -307.666 -138 -390.999s-237 -125 -435 -125c-199.333 0 -345.166 41.167 -437.499 123.5
s-138.5 213.166 -138.5 392.499v557zM714.998 1356c0 38 15 72.001 45 102.001s65 45 105 45s74.5 -14.333 103.5 -43s43.5 -63.334 43.5 -104.001c0 -44 -13.833 -80 -41.5 -108s-62.834 -42 -105.501 -42c-41.333 0 -76.666 14.5 -105.999 43.5s-44 64.5 -44 106.5z
M325.998 1356c0 38 15 72.002 45 102.002s64.667 45 104 45c41.333 0 76.333 -14.333 105 -43s43 -63.334 43 -104.001c0 -44 -13.833 -80 -41.5 -108s-63.167 -42 -106.5 -42c-41.333 0 -76.5 14.667 -105.5 44s-43.5 64.666 -43.5 105.999z" />
    <glyph glyph-name="yacute" unicode="&#xfd;" horiz-adv-x="739" 
d="M119 0v1034h502v-1034h-502z" />
    <glyph glyph-name="thorn" unicode="&#xfe;" horiz-adv-x="999" 
d="M400 -36c-28 0 -53.0029 1.83594 -75.0029 5.50293s-53 10.5 -93 20.5c-79.333 18 -156.666 46 -231.999 84l133 319c54.667 -36.667 105.334 -64.834 152.001 -84.501s86 -29.5 118 -29.5c25.333 0 45.333 5 60 15s22 24.667 22 44c0 26 -29.667 45 -89 57l-47 10
c-97.333 24 -168.166 59.5 -212.499 106.5s-66.5 109.167 -66.5 186.5c0 107.333 45.167 195.666 135.5 264.999s208.166 104 353.499 104c71.333 0 140.5 -6.83301 207.5 -20.5s129.5 -34.167 187.5 -61.5l-123 -311c-44.667 30 -86.167 53.167 -124.5 69.5
s-71.166 24.5 -98.499 24.5c-21.333 0 -39.333 -4.83301 -54 -14.5s-22 -22.5 -22 -38.5c0 -26 39.333 -47.333 118 -64l44 -10c100.667 -24 174.667 -59.167 222 -105.5s71 -106.833 71 -181.5c0 -116 -46.667 -210.667 -140 -284
c-43.333 -34 -92.166 -60.5 -146.499 -79.5s-113.5 -28.5 -177.5 -28.5v-46h18c74 0 130.667 -16.5 170 -49.5s59 -80.5 59 -142.5c0 -65.333 -22.167 -116.5 -66.5 -153.5s-106.833 -55.5 -187.5 -55.5c-43.333 0 -89.166 3.66699 -137.499 11
s-99.166 18.666 -152.499 33.999v141c15.333 -4 36.166 -9 62.499 -15s58.666 -12.167 96.999 -18.5s72.5 -9.5 102.5 -9.5c26.667 0 46.667 5.66699 60 17s20 28.333 20 51c0 20 -8.83301 34.833 -26.5 44.5s-47.834 14.5 -90.501 14.5l-25 -1l-26 -1v181z" />
    <glyph glyph-name="ydieresis" unicode="&#xff;" horiz-adv-x="1300" 
d="M410 90l-448.999 944h551l78 -264l3 -10c35.333 -123.333 56.666 -217 63.999 -281l46 192l28 105l76 258h516l-631 -1456h-534zM696.001 1356c0 38 15 72.001 45 102.001s65 45 105 45s74.5 -14.333 103.5 -43s43.5 -63.334 43.5 -104.001c0 -44 -13.833 -80 -41.5 -108
s-62.834 -42 -105.501 -42c-41.333 0 -76.666 14.5 -105.999 43.5s-44 64.5 -44 106.5zM307.001 1356c0 38 15 72.002 45 102.002s64.667 45 104 45c41.333 0 76.333 -14.333 105 -43s43 -63.334 43 -104.001c0 -44 -13.833 -80 -41.5 -108s-63.167 -42 -106.5 -42
c-41.333 0 -76.5 14.667 -105.5 44s-43.5 64.666 -43.5 105.999z" />
    <glyph glyph-name="Cacute" unicode="&#x106;" horiz-adv-x="1309" 
d="M1214 883c-47.333 45.333 -96.5039 79.4971 -147.504 102.497s-103.5 34.5 -157.5 34.5c-86 0 -155.167 -26.333 -207.5 -79s-78.5 -123.334 -78.5 -212.001c0 -85.333 25 -153.833 75 -205.5s117 -77.5 201 -77.5c26.667 0 52 2.33301 76 7s50 13 78 25
c53.333 22.667 110.666 57.334 171.999 104.001l-17 -551c-55.333 -22.667 -112.166 -40 -170.499 -52s-116.166 -18 -173.499 -18c-70 0 -138.5 8 -205.5 24s-126.833 38.667 -179.5 68c-129.333 74 -227.166 168.167 -293.499 282.5s-99.5 245.5 -99.5 393.5
c0 56.667 4.33301 109.334 13 158.001s23 97.334 43 146.001c38 92.667 92.833 174.834 164.5 246.501s155.834 126.167 252.501 163.5s200.334 56 311.001 56c60 0 118.833 -6.16699 176.5 -18.5s113.5 -30.833 167.5 -55.5v-542zM1161 1973l-311 -351h-166l180 351h297z
" />
    <glyph glyph-name="cacute" unicode="&#x107;" horiz-adv-x="950" 
d="M891 592c-25.333 22.667 -52.332 40 -80.999 52s-58.334 18 -89.001 18c-50.667 0 -91 -13.333 -121 -40s-45 -62.667 -45 -108c0 -42.667 14.833 -77.5 44.5 -104.5s67.5 -40.5 113.5 -40.5c29.333 0 59 6.5 89 19.5s59.667 32.167 89 57.5v-411
c-49.333 -24 -98.833 -42.333 -148.5 -55s-97.834 -19 -144.501 -19c-76 0 -147 12.833 -213 38.5s-124 63.5 -174 113.5c-52 52 -92.333 112.167 -121 180.5s-43 140.5 -43 216.5c0 54.667 7 106.667 21 156s34.333 95.666 61 138.999c51.333 82.667 117.333 147 198 193
s171 69 271 69c23.333 0 45.833 -1 67.5 -3s45.167 -5.66699 70.5 -11c48.667 -9.33301 100.334 -23.666 155.001 -42.999v-418zM870.001 1522l-311 -351h-166l180 351h297z" />
    <glyph glyph-name="Ccaron" unicode="&#x10c;" horiz-adv-x="1309" 
d="M1214 883c-47.333 45.333 -96.5039 79.4971 -147.504 102.497s-103.5 34.5 -157.5 34.5c-86 0 -155.167 -26.333 -207.5 -79s-78.5 -123.334 -78.5 -212.001c0 -85.333 25 -153.833 75 -205.5s117 -77.5 201 -77.5c26.667 0 52 2.33301 76 7s50 13 78 25
c53.333 22.667 110.666 57.334 171.999 104.001l-17 -551c-55.333 -22.667 -112.166 -40 -170.499 -52s-116.166 -18 -173.499 -18c-70 0 -138.5 8 -205.5 24s-126.833 38.667 -179.5 68c-129.333 74 -227.166 168.167 -293.499 282.5s-99.5 245.5 -99.5 393.5
c0 56.667 4.33301 109.334 13 158.001s23 97.334 43 146.001c38 92.667 92.833 174.834 164.5 246.501s155.834 126.167 252.501 163.5s200.334 56 311.001 56c60 0 118.833 -6.16699 176.5 -18.5s113.5 -30.833 167.5 -55.5v-542zM541.996 1973h154l168 -172l166 172h153
l-182 -353h-274z" />
    <glyph glyph-name="ccaron" unicode="&#x10d;" horiz-adv-x="950" 
d="M891 592c-25.333 22.667 -52.332 40 -80.999 52s-58.334 18 -89.001 18c-50.667 0 -91 -13.333 -121 -40s-45 -62.667 -45 -108c0 -42.667 14.833 -77.5 44.5 -104.5s67.5 -40.5 113.5 -40.5c29.333 0 59 6.5 89 19.5s59.667 32.167 89 57.5v-411
c-49.333 -24 -98.833 -42.333 -148.5 -55s-97.834 -19 -144.501 -19c-76 0 -147 12.833 -213 38.5s-124 63.5 -174 113.5c-52 52 -92.333 112.167 -121 180.5s-43 140.5 -43 216.5c0 54.667 7 106.667 21 156s34.333 95.666 61 138.999c51.333 82.667 117.333 147 198 193
s171 69 271 69c23.333 0 45.833 -1 67.5 -3s45.167 -5.66699 70.5 -11c48.667 -9.33301 100.334 -23.666 155.001 -42.999v-418zM251.001 1522h154l168 -172l166 172h153l-182 -353h-274z" />
    <glyph glyph-name="dcroat" unicode="&#x111;" horiz-adv-x="1407" 
d="M678 664c-38 0 -68.999 -13.668 -92.999 -41.001s-36 -63.666 -36 -108.999c0 -44.667 12.167 -81.5 36.5 -110.5s55.166 -43.5 92.499 -43.5c38 0 69 14.167 93 42.5s36 65.5 36 111.5c0 44 -12 80 -36 108s-55 42 -93 42zM1262 1550l0.00195312 -153h155v-256h-155
v-1141h-443v152c-44 -64 -94 -112 -150 -144c-26.667 -15.333 -55.334 -27 -86.001 -35s-63.334 -12 -98.001 -12c-122 0 -222 50 -300 150s-117 230.333 -117 391c0 150.667 40 276.667 120 378s179 152 297 152c66 0 124.833 -14.5 176.5 -43.5s98.5 -73.5 140.5 -133.5
l-7 81l-2 98v107h-289v256h289v153h469z" />
    <glyph glyph-name="Gbreve" unicode="&#x11e;" horiz-adv-x="1708" 
d="M1069 524l-229.001 -0.00292969v344h809l3 -67l1 -39c0 -83.333 -8 -159.833 -24 -229.5s-39.333 -131.167 -70 -184.5c-74 -125.333 -170.167 -221.166 -288.5 -287.499s-252.5 -99.5 -402.5 -99.5c-110.667 0 -213.667 18.5 -309 55.5s-179.166 91.5 -251.499 163.5
s-127.5 154.333 -165.5 247c-18.667 46 -32.667 93.833 -42 143.5s-14 102.5 -14 158.5c0 110.667 18.833 212.167 56.5 304.5s92.334 173.833 164.001 244.5s155.667 124.834 252 162.501s199.5 56.5 309.5 56.5c149.333 0 282.166 -32.667 398.499 -98
s212.166 -161.666 287.499 -288.999l-469 -174c-24 40 -53.333 70.167 -88 90.5s-74.667 30.5 -120 30.5c-78 0 -140.167 -29.667 -186.5 -89s-69.5 -139 -69.5 -239c0 -103.333 23.333 -183.5 70 -240.5s112.667 -85.5 198 -85.5c50.667 0 91.834 10.667 123.501 32
s50.5 51 56.5 89zM538.999 1958l130.999 0.000976562c4 -46.667 20.833 -81.167 50.5 -103.5s74.167 -33.5 133.5 -33.5s104.5 11.333 135.5 34s46.5 57 46.5 103h131c0 -50 -8 -94.833 -24 -134.5s-37.333 -72.5 -64 -98.5c-50.667 -49.333 -125.667 -74 -225 -74
c-100 0 -176 25 -228 75c-27.333 26.667 -48.666 59.167 -63.999 97.5s-23 83.166 -23 134.499z" />
    <glyph glyph-name="gbreve" unicode="&#x11f;" horiz-adv-x="1389" 
d="M565 541c0 -40.667 11.167 -72.667 33.5 -96s52.833 -35 91.5 -35c38 0 68.667 12 92 36s35 55.667 35 95c0 40 -11.667 72.167 -35 96.5s-54 36.5 -92 36.5c-36.667 0 -66.667 -12.333 -90 -37s-35 -56.667 -35 -96zM805 94l-0.00195312 90.001
c-46 -51.333 -95.333 -89.333 -148 -114c-25.333 -11.333 -52.666 -20.333 -81.999 -27s-59.333 -10 -90 -10c-119.333 0 -218.666 45.667 -297.999 137s-119 208 -119 350c0 164.667 38 297 114 397s177 150 303 150c64.667 0 123 -13.333 175 -40
s100.333 -68.667 145 -126v133h481v-884c0 -90.667 -4 -158.5 -12 -203.5s-21 -86.5 -39 -124.5c-42.667 -88.667 -118 -156 -226 -202s-245.667 -69 -413 -69c-94.667 0 -181.667 8.16699 -261 24.5s-152.666 40.5 -219.999 72.5l108 334c28 -18 55.667 -33.5 83 -46.5
s55.666 -24.167 84.999 -33.5c55.333 -18 110 -27 164 -27c82 0 144.167 18.667 186.5 56s63.5 91.666 63.5 162.999zM378.998 1507l130.999 0.000976562c4 -46.667 20.833 -81.167 50.5 -103.5s74.167 -33.5 133.5 -33.5s104.5 11.333 135.5 34s46.5 57 46.5 103h131
c0 -50 -8 -94.833 -24 -134.5s-37.333 -72.5 -64 -98.5c-50.667 -49.333 -125.667 -74 -225 -74c-100 0 -176 25 -228 75c-27.333 26.667 -48.666 59.167 -63.999 97.5s-23 83.166 -23 134.499z" />
    <glyph glyph-name="Idotaccent" unicode="&#x130;" horiz-adv-x="829" 
d="M147 0v1464h535v-1464h-535zM262 1807c0 40 15.667 75.499 47 106.499s67 46.5 107 46.5c44.667 0 81.834 -14.667 111.501 -44s44.5 -65.666 44.5 -108.999s-14.833 -80.166 -44.5 -110.499s-66.834 -45.5 -111.501 -45.5c-41.333 0 -77.333 15.667 -108 47
s-46 67.666 -46 108.999z" />
    <glyph glyph-name="dotlessi" unicode="&#x131;" horiz-adv-x="739" 
d="M119 0v1034h502v-1034h-502z" />
    <glyph glyph-name="Lslash" unicode="&#x141;" horiz-adv-x="1233" 
d="M170 0v459l-113 -72l-153 258l266 178v641h526v-354l187 127l178 -254l-365 -246v-280h514v-457h-1040z" />
    <glyph glyph-name="lslash" unicode="&#x142;" horiz-adv-x="764" 
d="M635 1550v-542l94 67l139 -225l-233 -164v-686h-483v424l-89 -62l-145 220l234 168v800h483z" />
    <glyph glyph-name="OE" unicode="&#x152;" horiz-adv-x="2238" 
d="M909 455c78 0 141.167 25.1689 189.5 75.502s72.5 116.5 72.5 198.5c0 84 -23.833 151.833 -71.5 203.5s-111.167 77.5 -190.5 77.5c-78 0 -140.833 -25.333 -188.5 -76s-71.5 -118.334 -71.5 -203.001s23.667 -151.834 71 -201.501s110.333 -74.5 189 -74.5z
M1190 0.00195312v129.001c-60 -56.667 -123.5 -98.834 -190.5 -126.501s-140.167 -41.5 -219.5 -41.5c-64 0 -126 8 -186 24s-115.333 39.333 -166 70c-110.667 68.667 -196 161.334 -256 278.001s-90 248.667 -90 396c0 109.333 16.5 210.666 49.5 303.999
s82.167 176.333 147.5 249c61.333 69.333 134.5 122.5 219.5 159.5s174.833 55.5 269.5 55.5c78 0 151.5 -12.167 220.5 -36.5s136.167 -61.833 201.5 -112.5v116h958v-397h-460v-141h419v-375h-419v-154h473v-397h-971z" />
    <glyph glyph-name="oe" unicode="&#x153;" horiz-adv-x="2017" 
d="M1970 434h-712.996v-16c0 -52 9.33301 -91.333 28 -118c19.333 -25.333 48.333 -38 87 -38c22 0 41.667 6.83301 59 20.5s31.333 33.5 42 59.5l466 -31c-38 -106 -106.333 -190.833 -205 -254.5s-211 -95.5 -337 -95.5c-68.667 0 -133.834 10.167 -195.501 30.5
s-121.5 51.833 -179.5 94.5c-56 -41.333 -114.333 -72.333 -175 -93c-30 -10.667 -59.833 -18.667 -89.5 -24s-60.167 -8 -91.5 -8c-79.333 0 -153.5 12 -222.5 36s-132.833 60.333 -191.5 109c-60.667 52 -107.667 113.5 -141 184.5s-50 145.5 -50 223.5
c0 80 16.667 155 50 225s81 131.667 143 185c54 46 116 81.333 186 106s145.333 37 226 37c74 0 139 -9.66699 195 -29s108.333 -50.666 157 -93.999c51.333 40 107 70.667 167 92c30 10 60.667 17.667 92 23s64.333 8 99 8c105.333 0 201.166 -22.167 287.499 -66.5
s159.166 -108.833 218.499 -193.5c29.333 -42 51.666 -89.833 66.999 -143.5s23 -111.834 23 -174.501l-1 -34zM1262 660h224.999c0 38 -10.667 67.667 -32 89c-18 19.333 -45 29 -81 29c-30.667 0 -55.667 -10.167 -75 -30.5s-31.666 -49.5 -36.999 -87.5zM680.003 369
c40.667 0 73.667 13.167 99 39.5s38 61.5 38 105.5s-12.667 79.167 -38 105.5s-58.333 39.5 -99 39.5c-40 0 -72.833 -13.333 -98.5 -40s-38.5 -61.667 -38.5 -105c0 -44 12.5 -79.167 37.5 -105.5s58.167 -39.5 99.5 -39.5z" />
    <glyph glyph-name="Scedilla" unicode="&#x15e;" horiz-adv-x="1251" 
d="M4 125l167.999 409.999c72.667 -50 139.667 -88.667 201 -116c59.333 -24 114.666 -36 165.999 -36c20 0 36.333 1.33301 49 4s24.667 8 36 16c20.667 14.667 31 33.334 31 56.001c0 40 -51.667 71 -155 93l-78 17c-108.667 26 -192.167 73.167 -250.5 141.5
s-87.5 153.166 -87.5 254.499c0 157.333 56.333 285.333 169 384s260.334 148 443.001 148c83.333 0 166 -11 248 -33c41.333 -11.333 81.833 -25 121.5 -41s81.167 -35.667 124.5 -59l-160 -383c-49.333 36 -99.666 64.167 -150.999 84.5s-101.333 30.5 -150 30.5
c-36 0 -64.167 -6.16699 -84.5 -18.5s-30.5 -29.5 -30.5 -51.5c0 -40.667 73 -77 219 -109l54 -12c100 -22 179.167 -68.167 237.5 -138.5s87.5 -155.166 87.5 -254.499c0 -162 -58.5 -294.333 -175.5 -397s-269.167 -154 -456.5 -154c-98 0 -194.5 13.667 -289.5 41
s-190.5 68.333 -286.5 123zM352.999 -440.001l0.000976562 141.001c15.333 -4 36.166 -9 62.499 -15s58.666 -12.167 96.999 -18.5s72.5 -9.5 102.5 -9.5c26.667 0 46.667 5.66699 60 17s20 28.333 20 51c0 20 -8.83301 34.833 -26.5 44.5s-47.834 14.5 -90.501 14.5l-25 -1
l-26 -1v217h123v-84h18c74 0 130.667 -16.5 170 -49.5s59 -80.5 59 -142.5c0 -65.333 -22.167 -116.5 -66.5 -153.5s-106.833 -55.5 -187.5 -55.5c-43.333 0 -89.166 3.66699 -137.499 11s-99.166 18.666 -152.499 33.999z" />
    <glyph glyph-name="scedilla" unicode="&#x15f;" horiz-adv-x="999" 
d="M0 74l132.999 319.002c54.667 -36.667 105.334 -64.834 152.001 -84.501s86 -29.5 118 -29.5c25.333 0 45.333 5 60 15s22 24.667 22 44c0 26 -29.667 45 -89 57l-47 10c-97.333 24 -168.166 59.5 -212.499 106.5s-66.5 109.167 -66.5 186.5
c0 107.333 45.167 195.666 135.5 264.999s208.166 104 353.499 104c71.333 0 140.5 -6.83301 207.5 -20.5s129.5 -34.167 187.5 -61.5l-123 -311c-44.667 30 -86.167 53.167 -124.5 69.5s-71.166 24.5 -98.499 24.5c-21.333 0 -39.333 -4.83301 -54 -14.5
s-22 -22.5 -22 -38.5c0 -26 39.333 -47.333 118 -64l44 -10c100.667 -24 174.667 -59.167 222 -105.5s71 -106.833 71 -181.5c0 -116 -46.833 -210.5 -140.5 -283.5s-216.834 -109.5 -369.501 -109.5c-41.333 0 -82.333 2.33301 -123 7s-81.334 12 -122.001 22
c-79.333 18 -156.666 46 -231.999 84zM225.999 -439.998l0.000976562 141.001c15.333 -4 36.166 -9 62.499 -15s58.666 -12.167 96.999 -18.5s72.5 -9.5 102.5 -9.5c26.667 0 46.667 5.66699 60 17s20 28.333 20 51c0 20 -8.83301 34.833 -26.5 44.5
s-47.834 14.5 -90.501 14.5l-25 -1l-26 -1v217h123v-84h18c74 0 130.667 -16.5 170 -49.5s59 -80.5 59 -142.5c0 -65.333 -22.167 -116.5 -66.5 -153.5s-106.833 -55.5 -187.5 -55.5c-43.333 0 -89.166 3.66699 -137.499 11s-99.166 18.666 -152.499 33.999z" />
    <glyph glyph-name="Scaron" unicode="&#x160;" horiz-adv-x="1251" 
d="M4 125l167.999 409.999c72.667 -50 139.667 -88.667 201 -116c59.333 -24 114.666 -36 165.999 -36c20 0 36.333 1.33301 49 4s24.667 8 36 16c20.667 14.667 31 33.334 31 56.001c0 40 -51.667 71 -155 93l-78 17c-108.667 26 -192.167 73.167 -250.5 141.5
s-87.5 153.166 -87.5 254.499c0 157.333 56.333 285.333 169 384s260.334 148 443.001 148c83.333 0 166 -11 248 -33c41.333 -11.333 81.833 -25 121.5 -41s81.167 -35.667 124.5 -59l-160 -383c-49.333 36 -99.666 64.167 -150.999 84.5s-101.333 30.5 -150 30.5
c-36 0 -64.167 -6.16699 -84.5 -18.5s-30.5 -29.5 -30.5 -51.5c0 -40.667 73 -77 219 -109l54 -12c100 -22 179.167 -68.167 237.5 -138.5s87.5 -155.166 87.5 -254.499c0 -162 -58.5 -294.333 -175.5 -397s-269.167 -154 -456.5 -154c-98 0 -194.5 13.667 -289.5 41
s-190.5 68.333 -286.5 123zM304.999 1973h154l168 -172l166 172h153l-182 -353h-274z" />
    <glyph glyph-name="scaron" unicode="&#x161;" horiz-adv-x="999" 
d="M0 74l132.999 319.002c54.667 -36.667 105.334 -64.834 152.001 -84.501s86 -29.5 118 -29.5c25.333 0 45.333 5 60 15s22 24.667 22 44c0 26 -29.667 45 -89 57l-47 10c-97.333 24 -168.166 59.5 -212.499 106.5s-66.5 109.167 -66.5 186.5
c0 107.333 45.167 195.666 135.5 264.999s208.166 104 353.499 104c71.333 0 140.5 -6.83301 207.5 -20.5s129.5 -34.167 187.5 -61.5l-123 -311c-44.667 30 -86.167 53.167 -124.5 69.5s-71.166 24.5 -98.499 24.5c-21.333 0 -39.333 -4.83301 -54 -14.5
s-22 -22.5 -22 -38.5c0 -26 39.333 -47.333 118 -64l44 -10c100.667 -24 174.667 -59.167 222 -105.5s71 -106.833 71 -181.5c0 -116 -46.833 -210.5 -140.5 -283.5s-216.834 -109.5 -369.501 -109.5c-41.333 0 -82.333 2.33301 -123 7s-81.334 12 -122.001 22
c-79.333 18 -156.666 46 -231.999 84zM177.999 1522h154l168 -172l166 172h153l-182 -353h-274z" />
    <glyph glyph-name="Ydieresis" unicode="&#x178;" horiz-adv-x="1305" 
d="M375 0v647l-490 817h600l123 -284c10.667 -23.333 24 -60 40 -110l3 -11c4 14 8.83301 28.5 14.5 43.5l23.5 59.5l7 17l121 285h596l-508 -817v-647h-530zM698 1807c0 38 15 72.001 45 102.001s65 45 105 45s74.5 -14.333 103.5 -43s43.5 -63.334 43.5 -104.001
c0 -44 -13.833 -80 -41.5 -108s-62.834 -42 -105.501 -42c-41.333 0 -76.666 14.5 -105.999 43.5s-44 64.5 -44 106.5zM309 1807c0 38 15 72.002 45 102.002s64.667 45 104 45c41.333 0 76.333 -14.333 105 -43s43 -63.334 43 -104.001c0 -44 -13.833 -80 -41.5 -108
s-63.167 -42 -106.5 -42c-41.333 0 -76.5 14.667 -105.5 44s-43.5 64.666 -43.5 105.999z" />
    <glyph glyph-name="Zcaron" unicode="&#x17d;" horiz-adv-x="1380" 
d="M-53 0l655 1028h-512v436h1350l-637 -1013h565v-451h-1421zM368 1973h154l168 -172l166 172h153l-182 -353h-274z" />
    <glyph glyph-name="zcaron" unicode="&#x17e;" horiz-adv-x="1120" 
d="M-2 0l412 647h-344v387h1079l-410 -641h357v-393h-1094zM239 1522h154l168 -172l166 172h153l-182 -353h-274z" />
    <glyph glyph-name="florin" unicode="&#x192;" horiz-adv-x="1403" 
d="M451 594l-191.002 -0.000976562l49 285h197l35 200c13.333 76 28.666 133.333 45.999 172s41.333 73.667 72 105c38.667 37.333 88.834 67.5 150.501 90.5s125.5 34.5 191.5 34.5c54.667 0 103.834 -2.16699 147.501 -6.5s84.167 -11.833 121.5 -22.5l-62 -373l-47 11
l-33 4c-30 0 -54 -10.333 -72 -31c-15.333 -18.667 -28 -52.667 -38 -102l-14 -82h184l-53 -285h-183l-84 -461c-10.667 -60 -21.167 -111.167 -31.5 -153.5s-22.166 -80.833 -35.499 -115.5c-22 -62.667 -50 -115 -84 -157
c-39.333 -49.333 -94.833 -87.666 -166.5 -114.999s-153.5 -41 -245.5 -41c-29.333 0 -57.333 1.5 -84 4.5s-50.5 5.83301 -71.5 8.5s-42.167 6 -63.5 10l64 371l36 -6l35 -2c78 0 138.667 126 182 378l9 54z" />
    <glyph glyph-name="circumflex" unicode="&#x2c6;" 
d="M190 1171l185 351h274l182 -351h-153l-166 170l-168 -170h-154z" />
    <glyph glyph-name="caron" unicode="&#x2c7;" 
d="M190 1522h154l168 -172l166 172h153l-182 -353h-274z" />
    <glyph glyph-name="breve" unicode="&#x2d8;" 
d="M197 1507l130.999 0.000976562c4 -46.667 20.833 -81.167 50.5 -103.5s74.167 -33.5 133.5 -33.5s104.5 11.333 135.5 34s46.5 57 46.5 103h131c0 -50 -8 -94.833 -24 -134.5s-37.333 -72.5 -64 -98.5c-50.667 -49.333 -125.667 -74 -225 -74c-100 0 -176 25 -228 75
c-27.333 26.667 -48.666 59.167 -63.999 97.5s-23 83.166 -23 134.499z" />
    <glyph glyph-name="dotaccent" unicode="&#x2d9;" 
d="M358 1356c0 40 15.667 75.499 47 106.499s67 46.5 107 46.5c44.667 0 81.834 -14.667 111.501 -44s44.5 -65.666 44.5 -108.999s-14.833 -80.166 -44.5 -110.499s-66.834 -45.5 -111.501 -45.5c-41.333 0 -77.333 15.667 -108 47s-46 67.666 -46 108.999z" />
    <glyph glyph-name="ring" unicode="&#x2da;" 
d="M397 1423c0 -32 11 -58.999 33 -80.999s49.333 -33 82 -33c32 0 59.167 11.167 81.5 33.5s33.5 49.166 33.5 80.499c0 32 -11.333 59.167 -34 81.5s-49.667 33.5 -81 33.5c-32 0 -59.167 -11.167 -81.5 -33.5s-33.5 -49.5 -33.5 -81.5zM242 1423
c0 76 26.168 140.167 78.501 192.5s116.166 78.5 191.499 78.5c76 0 140.333 -26.333 193 -79s79 -116.667 79 -192s-26.333 -139.5 -79 -192.5s-117 -79.5 -193 -79.5s-140 26 -192 78s-78 116.667 -78 194z" />
    <glyph glyph-name="ogonek" unicode="&#x2db;" 
d="M633 0c-42 -38 -72.333 -72.834 -91 -104.501s-28 -62.5 -28 -92.5c0 -26.667 6.16699 -46.5 18.5 -59.5s31.5 -19.5 57.5 -19.5h102v-191h-74c-104 0 -177.667 15.167 -221 45.5s-65 80.833 -65 151.5c0 50.667 15.5 97.834 46.5 141.501s79.5 86.5 145.5 128.5h109z
" />
    <glyph glyph-name="tilde" unicode="&#x2dc;" 
d="M844 1497c-20 -89.333 -47.668 -154.334 -83.001 -195.001s-80.666 -61 -135.999 -61l-38 3l-38 9l-92 27l-40 9l-28 3c-22 0 -40 -6 -54 -18s-26 -32 -36 -60h-119c18 84.667 44.667 146.834 80 186.501s80.333 59.5 135 59.5h25c8 -2 14.667 -3.5 20 -4.5
s10.5 -1.83301 15.5 -2.5s14.833 -3 29.5 -7l95 -27l26 -6l31 -2c22 0 40.167 7.16699 54.5 21.5s25.5 35.833 33.5 64.5h119z" />
    <glyph glyph-name="Omega" unicode="&#x3a9;" horiz-adv-x="1706" 
d="M1671 350l0.00195312 -349.999h-661v403c43.333 53.333 76.666 112.5 99.999 177.5s35 132.167 35 201.5c0 110 -26.667 197.667 -80 263s-124.333 98 -213 98c-88 0 -158.5 -32.833 -211.5 -98.5s-79.5 -153.167 -79.5 -262.5c0 -71.333 11.167 -138.833 33.5 -202.5
s56.166 -122.5 101.499 -176.5v-403h-661v350h371c-96.667 54 -168.667 123.667 -216 209s-71 185.666 -71 300.999c0 194 67 351 201 471s311.333 180 532 180c220 0 397.5 -60.167 532.5 -180.5s202.5 -277.166 202.5 -470.499c0 -114.667 -23.667 -214.334 -71 -299.001
s-119.333 -155 -216 -211h371z" />
    <glyph glyph-name="pi" unicode="&#x3c0;" horiz-adv-x="1716" 
d="M1661 846h-180l-119 -846h-418l119 846h-227l-119 -846h-418l119 846h-29c-20.667 0 -40 -12.333 -58 -37c-15.333 -22.667 -26 -54.667 -32 -96h-258c24 144 66.667 242.333 128 295s165.333 79 312 79h1221z" />
    <glyph glyph-name="endash" unicode="&#x2013;" 
d="M0 326v379h1024v-379h-1024z" />
    <glyph glyph-name="emdash" unicode="&#x2014;" horiz-adv-x="2048" 
d="M0 326v379h2048v-379h-2048z" />
    <glyph glyph-name="quoteleft" unicode="&#x2018;" horiz-adv-x="702" 
d="M719 1464l-236 -725h-501l346 725h391z" />
    <glyph glyph-name="quoteright" unicode="&#x2019;" horiz-adv-x="702" 
d="M-18 739l237 725h500l-344 -725h-393z" />
    <glyph glyph-name="quotesinglbase" unicode="&#x201a;" horiz-adv-x="702" 
d="M-18 -350l237 725h500l-344 -725h-393z" />
    <glyph glyph-name="quotedblleft" unicode="&#x201c;" horiz-adv-x="1341" 
d="M1360 1464l-238 -725h-499l344 725h393zM719 1464l-236 -725h-501l346 725h391z" />
    <glyph glyph-name="quotedblright" unicode="&#x201d;" horiz-adv-x="1341" 
d="M-18 739l237 725h500l-344 -725h-393zM623 739l235 725h502l-346 -725h-391z" />
    <glyph glyph-name="quotedblbase" unicode="&#x201e;" horiz-adv-x="1341" 
d="M623 -350l235 725h502l-346 -725h-391zM-18 -350l237 725h500l-344 -725h-393z" />
    <glyph glyph-name="dagger" unicode="&#x2020;" horiz-adv-x="1327" 
d="M426 -446v1073h-303v444h303v393h475v-393h303v-444h-303v-1073h-475z" />
    <glyph glyph-name="daggerdbl" unicode="&#x2021;" horiz-adv-x="1327" 
d="M453 -446v350h-332v385h332v459h-332v387h332v329h421v-329h332v-387h-332v-459h332v-385h-332v-350h-421z" />
    <glyph glyph-name="bullet" unicode="&#x2022;" horiz-adv-x="1208" 
d="M307 762c0 81.333 29.167 150.833 87.5 208.5s128.166 86.5 209.499 86.5c80.667 0 150 -28.833 208 -86.5s87 -127.167 87 -208.5s-29.167 -151.166 -87.5 -209.499s-128.166 -87.5 -209.499 -87.5s-150.833 29.167 -208.5 87.5s-86.5 128.166 -86.5 209.499z" />
    <glyph glyph-name="ellipsis" unicode="&#x2026;" horiz-adv-x="2048" 
d="M56 209c0 66 27.501 122.501 82.501 169.501s122.167 70.5 201.5 70.5s146.666 -23.333 201.999 -70s83 -103.334 83 -170.001c0 -66 -27.5 -122.5 -82.5 -169.5s-122.5 -70.5 -202.5 -70.5s-147.333 23.5 -202 70.5s-82 103.5 -82 169.5zM738.001 209.001
c0 66 27.501 122.501 82.501 169.501s122.167 70.5 201.5 70.5s146.666 -23.333 201.999 -70s83 -103.334 83 -170.001c0 -66 -27.5 -122.5 -82.5 -169.5s-122.5 -70.5 -202.5 -70.5s-147.333 23.5 -202 70.5s-82 103.5 -82 169.5zM1422 209.002
c0 66 27.501 122.501 82.501 169.501s122.167 70.5 201.5 70.5s146.666 -23.333 201.999 -70s83 -103.334 83 -170.001c0 -66 -27.5 -122.5 -82.5 -169.5s-122.5 -70.5 -202.5 -70.5s-147.333 23.5 -202 70.5s-82 103.5 -82 169.5z" />
    <glyph glyph-name="perthousand" unicode="&#x2030;" horiz-adv-x="2707" 
d="M428 879c28 0 48.333 14.667 61 44c12.667 32 19 82.667 19 152c0 72.667 -6.33301 123.667 -19 153c-12 30.667 -32.333 46 -61 46c-28 0 -48.667 -15.833 -62 -47.5s-20 -82.167 -20 -151.5c0 -37.333 1.33301 -67.5 4 -90.5s7.66699 -43.167 15 -60.5
c13.333 -30 34.333 -45 63 -45zM803 1075c0 -122.667 -34.333 -220.5 -103 -293.5s-160 -109.5 -274 -109.5c-114.667 0 -206.167 36.167 -274.5 108.5s-102.5 170.5 -102.5 294.5c0 122.667 34 220.667 102 294s159.667 110 275 110c114.667 0 206.167 -36.333 274.5 -109
s102.5 -171 102.5 -295zM2298 168c27.333 0 47.833 15.667 61.5 47s20.5 82 20.5 152c0 71.333 -6.66699 121.333 -20 150c-12 30.667 -32.667 46 -62 46c-28 0 -49 -15.333 -63 -46c-12.667 -32 -19 -82 -19 -150c0 -70.667 6.5 -121.5 19.5 -152.5
s33.833 -46.5 62.5 -46.5zM2675 367c0 -122.667 -34.167 -221 -102.5 -295s-159.833 -111 -274.5 -111s-206.167 36.667 -274.5 110s-102.5 172 -102.5 296c0 122.667 34.167 220.5 102.5 293.5s159.833 109.5 274.5 109.5s206.167 -36.167 274.5 -108.5
s102.5 -170.5 102.5 -294.5zM1444 168c27.333 0 47.5 15.5 60.5 46.5s19.5 81.833 19.5 152.5c0 71.333 -6.16699 121.833 -18.5 151.5s-32.833 44.5 -61.5 44.5c-28 0 -49 -15.333 -63 -46c-12.667 -32 -19 -82 -19 -150c0 -70.667 6.5 -121.5 19.5 -152.5
s33.833 -46.5 62.5 -46.5zM1819 367c0 -123.333 -34 -221.833 -102 -295.5s-159 -110.5 -273 -110.5c-114.667 0 -206.167 36.667 -274.5 110s-102.5 172 -102.5 296c0 122.667 34.167 220.5 102.5 293.5s159.833 109.5 274.5 109.5c114 0 205 -36.167 273 -108.5
s102 -170.5 102 -294.5zM408 -39l845 1518h211l-850 -1518h-206z" />
    <glyph glyph-name="guilsinglleft" unicode="&#x2039;" horiz-adv-x="621" 
d="M362 80l-296 434l296 434l193 -133l-217 -301l215 -301z" />
    <glyph glyph-name="guilsinglright" unicode="&#x203a;" horiz-adv-x="621" 
d="M258 80l-192 133l217 301l-220 301l195 133l297 -434z" />
    <glyph glyph-name="franc" unicode="&#x20a3;" horiz-adv-x="2159" 
d="M137 0v1464h979v-397h-452v-170h409v-375h-409v-522h-527zM1268 0l-0.00195312 1034h487v-145c42.667 58.667 90.834 103 144.501 133s112.834 45 177.501 45l22 -1l14 -1v-502c-27.333 14.667 -53 25.834 -77 33.501s-45.333 11.5 -64 11.5
c-64 0 -113.5 -17.333 -148.5 -52s-52.5 -83.334 -52.5 -146.001v-410h-503z" />
    <glyph glyph-name="trademark" unicode="&#x2122;" horiz-adv-x="1706" 
d="M1044 1468l99 -266l98 266h256v-559h-182v367l-137 -367h-70l-137 367v-367h-183v559h256zM690 1468v-151h-162v-408h-202v408h-162v151h526z" />
    <glyph glyph-name="partialdiff" unicode="&#x2202;" horiz-adv-x="1139" 
d="M770 715c6 31.333 11.668 62.835 17.001 94.502s11.333 74.167 18 127.5s10 99.333 10 138c0 70 -8.83301 123 -26.5 159s-43.5 54 -77.5 54c-20.667 0 -39.334 -7 -56.001 -21s-34.334 -37.667 -53.001 -71c-28.667 -52.667 -59 -92.167 -91 -118.5
s-65.667 -39.5 -101 -39.5c-41.333 0 -75.666 12.5 -102.999 37.5s-41 56.833 -41 95.5c0 57.333 34.333 106.5 103 147.5s151.667 61.5 249 61.5c148.667 0 265.834 -54.333 351.501 -163s128.5 -258.334 128.5 -449.001c0 -232 -55.833 -421.833 -167.5 -569.5
s-255.834 -221.5 -432.501 -221.5c-142.667 0 -255.167 38.5 -337.5 115.5s-123.5 182.833 -123.5 317.5c0 135.333 42 248.666 126 339.999s186.667 137 308 137c64.667 0 122 -14.333 172 -43s92.333 -71.667 127 -129zM694.001 553.002
c0 76 -11.166 133.501 -33.499 172.501s-55.5 58.5 -99.5 58.5c-59.333 0 -109.333 -46.833 -150 -140.5s-61 -211.834 -61 -354.501c0 -76 11.167 -133.333 33.5 -172s56.166 -58 101.499 -58c59.333 0 109 46.667 149 140s60 211.333 60 354z" />
    <glyph glyph-name="Delta" unicode="&#x2206;" horiz-adv-x="1505" 
d="M958 309l-206 705l-207 -705h413zM991 1473l518 -1473h-1515l518 1473h479z" />
    <glyph glyph-name="product" unicode="&#x220f;" horiz-adv-x="1688" 
d="M139 1473h1399v-1866h-473v1474h-453v-1474h-473v1866z" />
    <glyph glyph-name="c294" unicode="&#x2211;" horiz-adv-x="1583" 
d="M80 1473h1368v-353h-778l559 -557l-541 -600h846v-356h-1475v200l664 738l-643 629v299z" />
    <glyph glyph-name="c295" unicode="&#x2212;" horiz-adv-x="1706" 
d="M1452 750v-277h-1198v277h1198z" />
    <glyph glyph-name="fraction" unicode="&#x2215;" horiz-adv-x="342" 
d="M-342 -39l813 1518h211l-817 -1518h-207z" />
    <glyph glyph-name="periodcentered" unicode="&#x2219;" horiz-adv-x="702" 
d="M66 721c0 66 27.501 122.501 82.501 169.501s122.167 70.5 201.5 70.5s146.666 -23.333 201.999 -70s83 -103.334 83 -170.001c0 -66 -27.5 -122.5 -82.5 -169.5s-122.5 -70.5 -202.5 -70.5s-147.333 23.5 -202 70.5s-82 103.5 -82 169.5z" />
    <glyph glyph-name="radical" unicode="&#x221a;" horiz-adv-x="1395" 
d="M1399 1737v-172h-86l-588 -1606h-143l-301 827l-156 -59l-41 154l395 139l209 -600l483 1317h228z" />
    <glyph glyph-name="infinity" unicode="&#x221e;" horiz-adv-x="1706" 
d="M975 561c25.333 -37.333 56.667 -65.833 94 -85.5s79 -29.5 125 -29.5c56 0 101.667 14.167 137 42.5s53 64.833 53 109.5c0 42.667 -16 79 -48 109s-71 45 -117 45c-44.667 0 -85.5 -14.5 -122.5 -43.5s-77.5 -78.167 -121.5 -147.5zM731.001 653
c-26.667 37.333 -58.333 65.833 -95 85.5s-78 29.5 -124 29.5c-56 0 -101.333 -14.333 -136 -43s-52 -65.667 -52 -111c0 -42.667 16 -78.5 48 -107.5s71 -43.5 117 -43.5c44.667 0 85.5 14.5 122.5 43.5s76.833 77.833 119.5 146.5zM856.002 791
c46 85.333 95.6699 148.833 149.003 190.5s111.666 62.5 174.999 62.5c94.667 0 176 -42 244 -126s102 -188 102 -312c0 -129.333 -30.333 -234.333 -91 -315s-138.334 -121 -233.001 -121c-58 0 -112.667 17.667 -164 53c-25.333 18 -53.333 43.333 -84 76
s-65.334 74.334 -104.001 125.001c-44 -86 -92.667 -149.833 -146 -191.5s-112 -62.5 -176 -62.5c-95.333 0 -176.833 42.167 -244.5 126.5s-101.5 188.166 -101.5 311.499c0 130.667 30 236 90 316s137.333 120 232 120c56 0 109.333 -17.5 160 -52.5
s114.667 -101.833 192 -200.5z" />
    <glyph glyph-name="integral" unicode="&#x222b;" horiz-adv-x="1331" 
d="M379 -244c18 0 35.8359 13.999 53.5029 41.999s31.834 66 42.501 114c6.66699 33.333 12.667 84.333 18 153s8 146 8 232c0 50 1.5 108.833 4.5 176.5s4.5 106.5 4.5 116.5c0 164 13.667 311.333 41 442c24.667 117.333 59 217.333 103 300
c80 151.333 202.667 227 368 227c78.667 0 142 -19.333 190 -58s72 -89 72 -151c0 -45.333 -15.333 -82.666 -46 -111.999s-69.334 -44 -116.001 -44c-43.333 0 -77 13.333 -101 40c-22.667 28 -34 68 -34 120l1 10l1 16c0 16 -2.83301 28.333 -8.5 37s-14.5 13 -26.5 13
c-84 0 -126 -220.333 -126 -661l-3 -88c0 -86.667 -2.33301 -167.667 -7 -243s-14.334 -156 -29.001 -242c-8 -50.667 -18 -97.667 -30 -141s-26.667 -85 -44 -125c-43.333 -100 -98.833 -175.5 -166.5 -226.5s-146.834 -76.5 -237.501 -76.5c-78 0 -140.833 19 -188.5 57
s-71.5 88.667 -71.5 152c0 48 15 86 45 114s70.333 42 121 42c41.333 0 73.5 -12.5 96.5 -37.5s34.5 -59.833 34.5 -104.5l-1 -30l-1 -23c0 -14 2.66699 -24 8 -30s13.666 -9.66699 24.999 -11z" />
    <glyph glyph-name="approxequal" unicode="&#x2248;" horiz-adv-x="1706" 
d="M1530 309c-68 -44.667 -132.664 -78.001 -193.997 -100.001s-121 -33 -179 -33c-58.667 0 -152.167 21.5 -280.5 64.5s-233.5 64.5 -315.5 64.5c-54 0 -111.667 -12.333 -173 -37c-28.667 -11.333 -60.834 -27.166 -96.501 -47.499s-73.5 -44.833 -113.5 -73.5v299
c76 49.333 147 85.333 213 108c32 10.667 64.5 19 97.5 25s66.167 9 99.5 9c80 0 183.333 -21.5 310 -64.5s215.667 -64.5 267 -64.5c55.333 0 111.666 11.5 168.999 34.5s122.666 61.167 195.999 114.5v-299zM1530 773.999c-70 -46 -135.167 -79.667 -195.5 -101
s-118.833 -32 -175.5 -32c-58.667 0 -152.334 21.5 -281.001 64.5s-234.334 64.5 -317.001 64.5c-55.333 0 -112.666 -12 -171.999 -36s-129.666 -64 -210.999 -120v299c76 47.333 147.333 82.5 214 105.5s132 34.5 196 34.5c79.333 0 182 -21.167 308 -63.5
s215.667 -63.5 269 -63.5c29.333 0 57.666 2.66699 84.999 8s56 14.333 86 27c56.667 22.667 121.334 60.667 194.001 114v-301z" />
    <glyph glyph-name="notequal" unicode="&#x2260;" horiz-adv-x="1706" 
d="M1384 1116l-112 -139h180v-260h-358l-172 -211h530v-262h-704l-242 -299l-199 159l113 140h-166v262h340l170 211h-510v260h690l244 301z" />
    <glyph glyph-name="lessequal" unicode="&#x2264;" horiz-adv-x="1706" 
d="M1454 236v-271h-1200v271h1200zM1452 999l-704 -208l704 -209v-281l-1198 371v237l1198 373v-283z" />
    <glyph glyph-name="greaterequal" unicode="&#x2265;" horiz-adv-x="1706" 
d="M1454 236v-271h-1200v271h1200zM1452 909v-237l-1196 -371v281l705 209l-705 208v283z" />
    <glyph glyph-name="lozenge" unicode="&#x25ca;" horiz-adv-x="1012" 
d="M506 1409l-385 -821l385 -821l385 821zM506 1653l500 -1065l-500 -1065l-500 1065z" />
    <glyph glyph-name="apple" unicode="&#xf000;" horiz-adv-x="1618" 
d="M836 1216l-2 14v23c0 82.667 31.667 159 95 229s142 114 236 132l1 -23l1 -39c0 -87.333 -34.5 -165.5 -103.5 -234.5s-136.833 -103.5 -203.5 -103.5h-8l-8 1zM1505 403c-76 -164 -144.165 -278.001 -204.498 -342.001s-128.5 -96 -204.5 -96
c-32.667 0 -76.334 11 -131.001 33s-95.667 33 -123 33c-29.333 0 -72.833 -11 -130.5 -33s-100.167 -33 -127.5 -33c-42.667 0 -85.334 14.667 -128.001 44s-86 73.333 -130 132c-66.667 91.333 -119.334 189.666 -158.001 294.999c-18 52 -31.667 103 -41 153
s-14 99.333 -14 148c0 146 41.667 264.833 125 356.5s191 137.5 323 137.5c45.333 0 97.5 -11.333 156.5 -34s99.833 -34 122.5 -34c11.333 0 26.5 2.66699 45.5 8s44.167 14 75.5 26c60 22.667 111 34 153 34c74.667 0 141.167 -13.167 199.5 -39.5
s111.5 -67.166 159.5 -122.499c-67.333 -42.667 -117.666 -91.167 -150.999 -145.5s-50 -115.166 -50 -182.499c0 -74 20 -140.5 60 -199.5s97.667 -105.167 173 -138.5z" />
    <glyph glyph-name="fi" unicode="&#xf001;" horiz-adv-x="1612" 
d="M1513 1356c0 -72.667 -24.332 -131.167 -72.999 -175.5s-115 -66.5 -199 -66.5c-82 0 -147.5 22 -196.5 66s-73.5 102.667 -73.5 176s24.167 131.5 72.5 174.5s114.166 64.5 197.499 64.5c84.667 0 151.167 -21.5 199.5 -64.5s72.5 -101.167 72.5 -174.5zM991.001 0v1034
h502v-1034h-502zM176.001 0l-0.000976562 653h-135v381h135v117c0 142 38.333 251.5 115 328.5s186.667 115.5 330 115.5c36.667 0 73.334 -2 110.001 -6s75 -10 115 -18v-389l-22 3l-50 5c-33.333 0 -58 -9.33301 -74 -28c-14.667 -18.667 -22 -51 -22 -97v-31h168v-381
h-168v-653h-502z" />
    <glyph glyph-name="fl" unicode="&#xf002;" horiz-adv-x="1612" 
d="M991 0v1550h502v-1550h-502zM176 0l-0.000976562 653h-135v381h135v117c0 142 38.333 251.5 115 328.5s186.667 115.5 330 115.5c36.667 0 73.334 -2 110.001 -6s75 -10 115 -18v-389l-22 3l-50 5c-33.333 0 -58 -9.33301 -74 -28c-14.667 -18.667 -22 -51 -22 -97v-31
h168v-381h-168v-653h-502z" />
    <glyph glyph-name=".null" horiz-adv-x="0" 
 />
    <glyph glyph-name="nonmarkingreturn" horiz-adv-x="702" 
 />
    </font>
</defs>
</svg>
